<svg xmlns="http://www.w3.org/2000/svg">
  <defs>

    <!-- Budget -->
    <symbol id="icon-budget" viewBox="0 0 64 80" fill="currentColor">
      <path d="M1.78,23.85c-0.54,0-0.97-0.43-0.97-0.97v-6.51c0-2.44,1.98-4.43,4.42-4.43h10.5c0.54,0,0.97,0.43,0.97,0.97
        c0,0.54-0.43,0.97-0.97,0.97H5.23c-1.37,0-2.48,1.12-2.48,2.49v6.51C2.75,23.41,2.32,23.85,1.78,23.85z"/>
      <path d="M54.55,22.36c-0.54,0-0.97-0.43-0.97-0.97v-5.02c0-1.37-1.12-2.49-2.49-2.49h-3.11c-0.54,0-0.97-0.43-0.97-0.97
        c0-0.54,0.43-0.97,0.97-0.97h3.11c2.44,0,4.43,1.99,4.43,4.43v5.02C55.52,21.93,55.09,22.36,54.55,22.36z"/>
      <path d="M46.62,22.36c-0.28,0-0.55-0.12-0.74-0.34c-0.35-0.41-0.29-1.02,0.11-1.37l4.23-3.58L38.02,2.66L34.08,6
        c-0.41,0.35-1.02,0.3-1.37-0.11c-0.35-0.41-0.3-1.02,0.11-1.37l4.68-3.97c0.41-0.35,1.02-0.3,1.37,0.11l13.46,15.89
        c0.35,0.41,0.29,1.02-0.11,1.37l-4.97,4.21C47.06,22.29,46.84,22.36,46.62,22.36z"/>
      <path d="M5.72,22.36c-0.28,0-0.55-0.12-0.74-0.34c-0.35-0.41-0.3-1.02,0.11-1.37L29.2,0.23c0.2-0.17,0.45-0.25,0.71-0.23
        c0.26,0.02,0.49,0.14,0.66,0.34l13.46,15.89c0.17,0.2,0.25,0.45,0.23,0.71c-0.02,0.26-0.14,0.49-0.34,0.66l-5.35,4.53
        c-0.41,0.34-1.02,0.29-1.37-0.11c-0.35-0.41-0.29-1.02,0.11-1.37l4.61-3.9L29.71,2.34L6.34,22.13
        C6.16,22.29,5.94,22.36,5.72,22.36z"/>
      <path d="M62.11,50H44.77c-2.18,0-4.24-0.85-5.78-2.39c-1.55-1.55-2.4-3.6-2.4-5.78c0-4.51,3.67-8.17,8.17-8.17h17.35
        c0.08,0,0.23,0,0.41,0.06c0.51,0.17,0.78,0.72,0.61,1.23c-0.15,0.45-0.61,0.72-1.06,0.65H44.77c-3.44,0-6.23,2.8-6.23,6.23
        c0,1.66,0.65,3.23,1.83,4.41c1.17,1.17,2.74,1.82,4.41,1.82h17.32c0.45-0.07,0.91,0.2,1.06,0.65
        c0.17,0.51-0.11,1.06-0.61,1.23C62.35,50,62.2,50,62.11,50z"/>
      <path d="M45.03,46.61c-2.63,0-4.78-2.14-4.78-4.78c0-2.63,2.14-4.78,4.78-4.78c2.63,0,4.78,2.14,4.78,4.78
        C49.81,44.47,47.66,46.61,45.03,46.61z M45.03,38.99c-1.57,0-2.84,1.27-2.84,2.84s1.27,2.84,2.84,2.84s2.84-1.27,2.84-2.84
        S46.59,38.99,45.03,38.99z"/>
      <path d="M59.28,64H4.72c-2.15,0-3.91-1.75-3.91-3.91v-38.7c0-0.54,0.43-0.97,0.97-0.97h57.5c2.15,0,3.91,1.75,3.91,3.91v35.76
        C63.19,62.25,61.44,64,59.28,64z M2.75,22.36v37.73c0,1.09,0.88,1.97,1.97,1.97h54.56c1.09,0,1.97-0.88,1.97-1.97V24.33
        c0-1.09-0.88-1.97-1.97-1.97H2.75z"/>
    </symbol>

    <!-- Savings / Pig (new) -->
    <symbol id="icon-savings" viewBox="0 0 100 125" fill="currentColor">
        <path d="M50.26,53.13A10.49,10.49,0,1,0,60.75,63.62,10.5,10.5,0,0,0,50.26,53.13Zm0,18.65a8.16,8.16,0,1,1,8.16-8.16A8.17,8.17,0,0,1,50.26,71.78Z"/>
        <path d="M43.84,49.63a1.75,1.75,0,1,0-1.74-1.75,1.76,1.76,0,0,0,1.74,1.75Z"/>
        <path d="M56.67,49.63a1.75,1.75,0,1,0-1.75-1.75,1.76,1.76,0,0,0,1.75,1.75Z"/>
        <path d="M47.35,61.29A1.75,1.75,0,1,0,49.09,63a1.75,1.75,0,0,0-1.74-1.75Z"/>
        <path d="M53.18,61.29A1.75,1.75,0,1,0,54.92,63a1.75,1.75,0,0,0-1.74-1.75Z"/>
        <path d="M76.21,36.09,76.77,32l-2.37.24v0l-.26,0c-3.19-5-7.86-8.1-14.21-9.57a11.07,11.07,0,0,0-20.49,0c-6.35,1.47-11,4.61-14.2,9.57l-.26,0v0L22.58,32l.56,4.09A35,35,0,0,0,20,50.8,33.92,33.92,0,0,0,30.44,75.67v5.42A3.52,3.52,0,0,0,34,84.61h8.94a1.54,1.54,0,0,0,1.54-1.55v-.14a26.71,26.71,0,0,0,10.49,0v.16a1.54,1.54,0,0,0,1.53,1.53h8.74a3.73,3.73,0,0,0,3.73-3.72V75.67A34,34,0,0,0,79.41,50.8,34.86,34.86,0,0,0,76.21,36.09Zm-2.15-1.48-.45,3.25a8.34,8.34,0,0,1-2.08,4,16.36,16.36,0,0,0-2,3.06c-.15-.27-.33-.52-.49-.78s-.39-.65-.6-.95-.53-.72-.79-1.07-.34-.46-.52-.67-.61-.68-.92-1-.39-.41-.58-.61S65,39.3,64.7,39s-.49-.44-.75-.65l-.2-.19.37-.2c2.79-1.51,5.42-2.93,8.71-3.26Zm-33-9a1.1,1.1,0,0,0,0-.16,9.07,9.07,0,0,1,.34-1.34,8.73,8.73,0,0,1,16.53,0,9.07,9.07,0,0,1,.34,1.34.78.78,0,0,1,0,.16,7.5,7.5,0,0,1,.12,1.34,8.42,8.42,0,0,1-.21,1.86l-.24-.1c-.44-.19-.89-.38-1.35-.54-.18-.07-.36-.12-.55-.18-.39-.13-.78-.26-1.19-.36l-.9-.21c-.31-.07-.61-.14-.92-.19s-.8-.12-1.2-.17-.48-.07-.73-.09h-.06c-.52-.05-1.06-.07-1.59-.08h-.11q-.63,0-1.26.06H47.9c-.42,0-.85.06-1.27.11l-.26,0a1.38,1.38,0,0,1-.2,0L45,27.24l-.62.14c-.48.11-1,.23-1.41.37s-.68.2-1,.32l-.11.05-.43.17-.34.13a8.68,8.68,0,0,1-.14-1.52A10,10,0,0,1,41,25.56Zm-2.31-.3a.57.57,0,0,0,0,.13,10.18,10.18,0,0,0,.21,4.13A16.64,16.64,0,0,0,35.74,32a1.17,1.17,0,0,0,1.66,1.65,14.05,14.05,0,0,1,3.33-2.45l.12-.06c.27-.15.53-.27.78-.39l.59-.25.47-.2c.32-.11.65-.22,1-.31s.91-.26,1.39-.36l.36-.08c.39-.08.8-.14,1.2-.19l.25,0c.41,0,.82-.08,1.24-.1.25,0,.49,0,.74,0h.36c.56,0,1.12,0,1.68.07a18.44,18.44,0,0,1,2,.26h0a19.05,19.05,0,0,1,1.88.44l.13.05a16.64,16.64,0,0,1,1.72.6l.09,0a15.7,15.7,0,0,1,1.65.8l.42.23.26.14a13.3,13.3,0,0,1,2.44,1.91,1.15,1.15,0,0,0,.82.35,1.14,1.14,0,0,0,.82-.35,1.16,1.16,0,0,0,0-1.65,15.69,15.69,0,0,0-2.76-2.18,10.9,10.9,0,0,0,.42-3,10.73,10.73,0,0,0-.11-1.51.66.66,0,0,1,0-.14,19.41,19.41,0,0,1,10.89,7.3l-.17,0c-.16,0-.32.06-.48.09l-.76.17-.49.13-.7.22-.48.16c-.23.09-.45.16-.67.26s-.31.12-.47.18l-.67.29-.42.2-.71.34-.36.18-.82.43-.25.12L63,35.94l-1.44.77a22.51,22.51,0,0,0-23.79,0l-1.43-.77-1.07-.57L35,35.23l-.81-.42-.37-.18-.7-.34-.43-.2-.67-.29-.46-.19c-.22-.09-.44-.16-.67-.24l-.48-.17c-.23-.08-.47-.15-.7-.21l-.5-.14-.75-.17c-.17,0-.32-.07-.49-.09l-.16,0A19.32,19.32,0,0,1,38.73,25.26Zm-12.2,9.47c3.29.33,5.92,1.75,8.71,3.26l.37.2c-.07.06-.13.13-.21.19-.25.2-.5.42-.74.64s-.64.56-.94.85l-.56.6c-.32.34-.64.67-.94,1s-.33.43-.49.65-.57.71-.82,1.09-.4.62-.59.94-.34.52-.5.79a16.34,16.34,0,0,0-2-3.06,8.31,8.31,0,0,1-2.09-4l-.45-3.25Zm3.91,37.65A31.84,31.84,0,0,1,22.28,50.8,33.13,33.13,0,0,1,24,40.22a.59.59,0,0,1,0,.08q.18.41.39.78s0,0,0,0a7.92,7.92,0,0,0,.42.69c.05.08.1.14.14.21s.25.34.37.51.09.12.13.19l.48.62a12.55,12.55,0,0,1,2,3.23l.5,1.35a22.46,22.46,0,0,0,2,20.19Zm11.66,9.9H34a1.19,1.19,0,0,1-1.18-1.19V71.23c.21.23.44.46.66.69l.25.25c.45.45.93.88,1.41,1.29l.32.26A22.4,22.4,0,0,0,38.73,76l.25.14a21.79,21.79,0,0,0,3.12,1.39Zm12.82-1.73a25.06,25.06,0,0,1-10.49,0V78.14a21.81,21.81,0,0,0,10.49,0Zm11.66.34a1.39,1.39,0,0,1-1.39,1.39H57.26v-4.8a22.3,22.3,0,0,0,3.12-1.39l.24-.13A22.71,22.71,0,0,0,64,73.71l.3-.24c.49-.42,1-.85,1.42-1.3l.24-.25c.22-.23.45-.45.66-.69Zm.13-13.65c-.19.29-.4.57-.61.86l-.5.67c-.2.25-.41.48-.62.72s-.42.47-.64.7-.41.41-.62.61-.5.48-.77.7-.4.34-.6.51-.62.46-.93.69l-.57.39c-.36.24-.74.46-1.11.68l-.48.28c-.47.24-.94.47-1.43.68l-.27.12a20.23,20.23,0,0,1-15.77,0l-.27-.12c-.49-.21-1-.43-1.43-.68l-.47-.28c-.39-.22-.76-.44-1.12-.68l-.57-.39c-.31-.23-.62-.45-.92-.69l-.61-.5-.77-.71c-.21-.2-.42-.4-.62-.61s-.43-.46-.64-.7-.41-.47-.61-.72-.34-.45-.51-.67l-.61-.86a20.26,20.26,0,0,1-1.82-19c.09-.23.2-.45.3-.67s.31-.67.48-1,.22-.41.33-.61c.2-.37.43-.72.66-1.08l.26-.4a20.26,20.26,0,0,1,2.32-2.81l.28-.27c.33-.33.68-.64,1-1l.39-.33c.36-.29.73-.57,1.11-.83l.36-.26a20.33,20.33,0,0,1,22.63,0c.13.08.24.17.36.26.38.26.75.54,1.11.82l.4.34c.36.31.71.62,1,1l.29.27a21.43,21.43,0,0,1,2.31,2.81c.09.13.18.26.26.4.24.36.46.72.66,1.09.12.2.23.39.34.6s.32.66.48,1,.2.43.29.66a20.26,20.26,0,0,1-1.82,19Zm2.21,5.14V68.1a22.5,22.5,0,0,0,2-20.19l.51-1.35a12.25,12.25,0,0,1,2-3.23l.48-.62.13-.19.37-.51.14-.21c.15-.22.29-.45.43-.69l0,0a6.08,6.08,0,0,0,.37-.77.56.56,0,0,0,0-.08A32.85,32.85,0,0,1,77.07,50.8,31.88,31.88,0,0,1,68.92,72.38Z"/>
    </symbol>

    <!-- Categories -->
    <symbol id="icon-categories" viewBox="0 0 100 125" fill="currentColor">
      <g>
        <path d="M62.4,15.3H16.18V83.41H84.3V15.3ZM38.07,81H18.62V17.73H38.07ZM60,81H40.51V17.73H60Zm21.89,0H62.4V17.73H81.86Zm0,0"/>
        <path d="M21,20.16V46.92h14.6V20.16ZM33.21,44.49H23.48V22.6h9.73Z"/>
        <path d="M42.94,20.16V46.92H57.53V20.16ZM55.1,44.49H45.37V22.6H55.1Z"/>
        <path d="M64.83,20.16V46.92h14.6V20.16ZM77,44.49H67.27V22.6H77Z"/>
        <path d="M28.34,62.73a7.3,7.3,0,1,0,7.3,7.3A7.31,7.31,0,0,0,28.34,62.73Zm0,12.16A4.86,4.86,0,1,1,33.21,70,4.86,4.86,0,0,1,28.34,74.89Z"/>
        <path d="M50.23,62.73a7.3,7.3,0,1,0,7.3,7.3A7.3,7.3,0,0,0,50.23,62.73Zm0,12.16A4.86,4.86,0,1,1,55.1,70,4.87,4.87,0,0,1,50.23,74.89Z"/>
        <path d="M72.13,62.73a7.3,7.3,0,1,0,7.3,7.3A7.3,7.3,0,0,0,72.13,62.73Zm0,12.16A4.86,4.86,0,1,1,77,70,4.86,4.86,0,0,1,72.13,74.89Z"/>
      </g>
    </symbol>

    <!-- Merchants -->
    <symbol id="icon-merchants" viewBox="0 0 100 125" fill="currentColor">
      <g>
        <path d="M85.41,81.27V33.84H70.82V81.27H67.16V43.57H52.57v37.7H48.92v-28H34.33v28H30.67v-17H16.08v17H14.86a1.22,1.22,0,0,0,0,2.44H85.41a1.22,1.22,0,0,0,0-2.44Zm-57.16,0H18.51V66.68h9.74Zm18.24,0H36.76V55.73h9.73Zm18.25,0H55V46h9.74Zm18.24,0H73.24v-45H83Z"/>
        <path d="M23.42,47.62a1.2,1.2,0,0,0,.6-.16L68.14,22l-2.76,6.07a1.21,1.21,0,0,0,.6,1.61,1.24,1.24,0,0,0,.5.1,1.22,1.22,0,0,0,1.11-.71l4.33-9.52s0-.06,0-.09a.76.76,0,0,0,.06-.2.29.29,0,0,1,0-.1s0,0,0,0V19a1.38,1.38,0,0,0,0-.2l0-.14-.06-.12a.38.38,0,0,0,0-.1.46.46,0,0,1-.07-.07l-.08-.11a.9.9,0,0,0-.1-.09L71.46,18,71.35,18l0,0a.18.18,0,0,0-.1,0l-.2-.06-.09,0-10.41-1a1.22,1.22,0,0,0-.24,2.42l6.63.64L22.8,45.35a1.22,1.22,0,0,0,.62,2.27Z"/>
      </g>
    </symbol>

    <!-- Account -->
    <symbol id="icon-account" viewBox="0 0 100 125" fill="currentColor">
      <g>
        <path d="M78.21,24.51H65.62V21.87a6.69,6.69,0,0,0-6.69-6.68H25.67A6.69,6.69,0,0,0,19,21.87V78.46a6.69,6.69,0,0,0,6.69,6.68H58.93a6.69,6.69,0,0,0,6.69-6.68V64.16H78.21a3.74,3.74,0,0,0,3.73-3.74V28.25A3.74,3.74,0,0,0,78.21,24.51ZM63.28,78.46a4.36,4.36,0,0,1-4.35,4.35H25.67a4.36,4.36,0,0,1-4.35-4.35V21.87a4.35,4.35,0,0,1,4.35-4.35H58.93a4.35,4.35,0,0,1,4.35,4.35ZM68,61.82H65.62v-35H68Zm4.66,0H70.28v-35h2.33Zm7-1.4a1.4,1.4,0,0,1-1.4,1.4H74.94v-35h3.27a1.4,1.4,0,0,1,1.4,1.4Z"/>
        <path d="M78.44,31.51a1.17,1.17,0,1,1-1.16-1.17,1.17,1.17,0,0,1,1.16,1.17Z"/>
        <path d="M78.44,37.34a1.17,1.17,0,1,1-1.16-1.17,1.17,1.17,0,0,1,1.16,1.17Z"/>
        <path d="M24.81,25.68V40.84h35V25.68ZM57.45,38.51H27.15V28h30.3Z"/>
        <path d="M31.81,23.35a1.17,1.17,0,1,0,0-2.33h-7a1.17,1.17,0,0,0,0,2.33Z"/>
        <path d="M26,43.17v8.16H35.3V43.17ZM33,49H28.31V45.5H33Z"/>
        <path d="M37.64,43.17v8.16H47V43.17Zm7,5.83H40V45.5h4.67Z"/>
        <path d="M49.3,43.17v8.16h9.32V43.17Zm7,5.83H51.62V45.5h4.67Z"/>
        <path d="M26,52.5v8.16H35.3V52.5Zm7,5.83H28.31v-3.5H33Z"/>
        <path d="M37.64,52.5v8.16H47V52.5Zm7,5.83H40v-3.5h4.67Z"/>
        <path d="M49.3,52.5v8.16h9.32V52.5Zm7,5.83H51.62v-3.5h4.67Z"/>
        <path d="M26,61.82V70H35.3V61.82Zm7,5.83H28.31V64.16H33Z"/>
        <path d="M37.64,61.82V70H47V61.82Zm7,5.83H40V64.16h4.67Z"/>
        <path d="M26,72.31v8.17H35.3V72.31Zm7,5.83H28.31V74.65H33Z"/>
        <path d="M37.64,72.31v8.17H47V72.31Zm7,5.83H40V74.65h4.67Z"/>
        <path d="M49.3,61.82V80.48h9.32V61.82Zm7,16.32H51.62v-14h4.67Z"/>
        <path d="M39.25,29.27a1.15,1.15,0,0,0-.89,0,1.09,1.09,0,0,0-.38.25l-1.17,1.16a1.18,1.18,0,0,0,.83,2v3.49a1.17,1.17,0,1,0,2.33,0V30.34a1.12,1.12,0,0,0-.09-.44,1.18,1.18,0,0,0-.63-.63Z"/>
        <path d="M49.74,29.27a1.15,1.15,0,0,0-.89,0,1.19,1.19,0,0,0-.38.25l-1.16,1.16a1.16,1.16,0,0,0,0,1.65,1.14,1.14,0,0,0,.82.35v3.49a1.17,1.17,0,1,0,2.33,0V30.34a1.12,1.12,0,0,0-.09-.44,1.15,1.15,0,0,0-.63-.63Z"/>
        <path d="M54.4,29.27a1.15,1.15,0,0,0-.89,0,1.19,1.19,0,0,0-.38.25L52,30.68a1.18,1.18,0,0,0,.82,2v3.49a1.17,1.17,0,0,0,2.34,0V30.34a1.13,1.13,0,0,0-.1-.44,1.12,1.12,0,0,0-.63-.63Z"/>
        <path d="M43.81,34.18l-1.17,1.17a1.18,1.18,0,0,0,0,1.65,1.21,1.21,0,0,0,.83.34,1.18,1.18,0,0,0,.82-.34l1.16-1.17a1.16,1.16,0,1,0-1.64-1.65Z"/>
      </g>
    </symbol>

    <!-- Transactions -->
    <symbol id="icon-transactions" viewBox="0 0 100 125" fill="currentColor">
      <path d="M30.41,22.19A1.17,1.17,0,1,1,29.24,21a1.18,1.18,0,0,1,1.17,1.17Z"/>
      <path d="M26.91,25.69a1.17,1.17,0,1,1-1.17-1.17,1.16,1.16,0,0,1,1.17,1.17Z"/>
      <path d="M54.89,25.69a1.17,1.17,0,1,1-1.17-1.17,1.16,1.16,0,0,1,1.17,1.17Z"/>
      <path d="M58.39,22.19A1.17,1.17,0,1,1,57.22,21a1.18,1.18,0,0,1,1.17,1.17Z"/>
      <path d="M61.88,25.69a1.17,1.17,0,0,1-2.33,0,1.17,1.17,0,1,1,2.33,0Z"/>
      <path d="M47.9,32.68a1.17,1.17,0,1,1-1.17-1.16,1.17,1.17,0,0,1,1.17,1.16Zm0,0"/>
      <path d="M40.9,32.68a1.17,1.17,0,1,1-1.17-1.16,1.17,1.17,0,0,1,1.17,1.16Z"/>
      <path d="M75.88,32.68a1.17,1.17,0,1,1-1.17-1.16,1.17,1.17,0,0,1,1.17,1.16Z"/>
      <path d="M44.39,36.18A1.16,1.16,0,1,1,43.23,35a1.16,1.16,0,0,1,1.16,1.16Z"/>
      <path d="M47.9,39.68a1.17,1.17,0,1,1-1.17-1.17,1.17,1.17,0,0,1,1.17,1.17Zm0,0"/>
      <path d="M37.4,36.18A1.17,1.17,0,1,1,36.24,35a1.16,1.16,0,0,1,1.16,1.16Z"/>
      <path d="M40.9,39.68a1.17,1.17,0,1,1-1.17-1.17,1.16,1.16,0,0,1,1.17,1.17Z"/>
      <path d="M79.37,36.18A1.17,1.17,0,1,1,78.2,35a1.17,1.17,0,0,1,1.17,1.16Z"/>
      <path d="M72.37,36.18A1.16,1.16,0,1,1,71.21,35a1.16,1.16,0,0,1,1.16,1.16Z"/>
      <path d="M75.88,39.68a1.17,1.17,0,1,1-1.17-1.17,1.17,1.17,0,0,1,1.17,1.17Z"/>
      <path d="M83.93,28.85a1.33,1.33,0,0,0-.05-.34L79.08,18a4.83,4.83,0,0,0-4.37-2.79h-49A4.82,4.82,0,0,0,21.38,18L16.64,28.32l-.06.17a1.34,1.34,0,0,0,0,.49,1.54,1.54,0,0,0-.11.58v7.83a9.31,9.31,0,0,0,1.16,4.51v8.57A4.37,4.37,0,0,0,16.5,52.6a4.67,4.67,0,0,0,.11,2.13A1.46,1.46,0,0,1,16.37,56a6.75,6.75,0,0,0-.61,6.26,4.27,4.27,0,0,0,.48.83,1.58,1.58,0,0,1,.26,1.28,3.7,3.7,0,0,0-.13.74A9.57,9.57,0,0,0,16.66,68a5.11,5.11,0,0,0,1.42,3,3,3,0,0,0,1.84.71v4.23H16.5l-.59,0-.72.88,1.41,8.42H82.87V41.9A9.31,9.31,0,0,0,84,37.39v-8A1.19,1.19,0,0,0,83.93,28.85ZM74.71,17.57A2.48,2.48,0,0,1,77,19l4.17,9.06H67.52l-1-5.25-1-5.25Zm-23.32,0h2.12a1.15,1.15,0,0,0-.95,1.12,1.17,1.17,0,1,0,2.33,0,1.15,1.15,0,0,0-1-1.12h6.57a1.16,1.16,0,0,0-1,1.12,1.17,1.17,0,0,0,1.17,1.17,1.16,1.16,0,0,0,.22-2.29h2.3l.65,3.52a1.16,1.16,0,0,0,.33,2.27l.08,0,.85,4.73H51.39Zm0,12.82h14v7a7,7,0,1,1-14,0ZM36.25,22.82l1-5.25H49.06v10.5H35.3Zm-1.18,7.57h14v7a7,7,0,0,1-5.23,6.76,1.14,1.14,0,0,0,.56-1,1.16,1.16,0,1,0-1.33,1.13,8.26,8.26,0,0,1-1,.08,7,7,0,0,1-7-7ZM21.6,23.13a1,1,0,0,0,.64.23,1.17,1.17,0,0,0,1.17-1.17,1.14,1.14,0,0,0-.87-1.1l1-2.08a2.44,2.44,0,0,1,1.76-1.37,1.15,1.15,0,0,0-.68,1.05,1.17,1.17,0,1,0,2.33,0A1.15,1.15,0,0,0,26,17.57h6.57a1.15,1.15,0,0,0-1,1.12,1.17,1.17,0,1,0,2.33,0A1.15,1.15,0,0,0,33,17.57h1.89l-1,5.25-.37,2a1.12,1.12,0,0,0-.78-.32,1.17,1.17,0,1,0,0,2.33,1.26,1.26,0,0,0,.43-.08l-.24,1.3H19.32Zm-2.85,7.26h14v7a7,7,0,0,1-7,7,7.36,7.36,0,0,1-.82-.06l-.28,0-.52-.1-.32-.08L23.34,44,23,43.84l-.64-.31-.31-.19-.38-.25-.26-.2A4.19,4.19,0,0,1,21,42.5l-.13-.12a7.21,7.21,0,0,1-.59-.64h0a7.88,7.88,0,0,1-.51-.73l-.12-.21-.05-.07a7,7,0,0,1-.84-3.33Zm.85,38.77a3.48,3.48,0,0,1-.66-1.7,8,8,0,0,1-.25-2.17,2.32,2.32,0,0,1,.06-.38,3.9,3.9,0,0,0-.64-3.24,2.77,2.77,0,0,1-.22-.37,4.4,4.4,0,0,1,.42-4,3.79,3.79,0,0,0,.54-3.21,2.3,2.3,0,0,1-.06-1,2,2,0,0,1,.61-1.12l.08-.06a1.18,1.18,0,0,1,.29-.19l1.06-.87a.81.81,0,0,1,.29-.19s.05,0,.08,0a1.65,1.65,0,0,1,.65-.09l.3,0a3,3,0,0,1,1.14.4l.25.21c.12.11.22.2.31.3a1.72,1.72,0,0,1,.23.32A1.88,1.88,0,0,1,24.23,53a3.54,3.54,0,0,0,.72,3,1.36,1.36,0,0,1,.28.61,2.24,2.24,0,0,1,.05.46,5.17,5.17,0,0,1-.4,1.73,6.64,6.64,0,0,1-.77,1.44,3.8,3.8,0,0,0-.6,2.85,4.92,4.92,0,0,0,.3,1,3,3,0,0,1,.24,1,3.2,3.2,0,0,1-.12,1.07,3,3,0,0,1-.21.52,3.88,3.88,0,0,1-.63,1l0,0a4.68,4.68,0,0,1-.38.39,7.34,7.34,0,0,1-1.3.9h0a3.88,3.88,0,0,1-.56.23A1.28,1.28,0,0,1,19.6,69.16Zm6.35-6A1.65,1.65,0,0,1,26,61.55a5.13,5.13,0,0,0,.32-.52A9.54,9.54,0,0,0,27,59.6a6.12,6.12,0,0,0,.48-3.51,3.72,3.72,0,0,0-.78-1.64,1.25,1.25,0,0,1-.24-1,4.08,4.08,0,0,0,.09-.93,1.77,1.77,0,0,1,0-.23,5.47,5.47,0,0,0-.13-.81s0-.06,0-.09H52.55V75.87H22.24V71.12a1.24,1.24,0,0,0,.2-.1,8.35,8.35,0,0,0,1.74-1.19h0l0,0a6.16,6.16,0,0,0,.63-.62l.08-.11a5.47,5.47,0,0,0,.41-.54,2.13,2.13,0,0,0,.16-.25,4.17,4.17,0,0,0,.26-.46c.05-.08.09-.17.13-.25a5.1,5.1,0,0,0,.28-.74,4.7,4.7,0,0,0,.19-.92,6.12,6.12,0,0,0,0-1A5.44,5.44,0,0,0,26,63.12ZM23.59,82.86h-5l-.78-4.67h6.58Zm52.29,0H59.55V51.38H75.88Zm4.66,0H78.2V49.05h-21V82.86H26l.77-4.67H54.89V49.05H24.7a5.16,5.16,0,0,0-2.22-.86,4.36,4.36,0,0,0-.88,0l-.22,0a3.19,3.19,0,0,0-.63.1l-.18,0a3.16,3.16,0,0,0-.66.27v-3.9a9.38,9.38,0,0,0,2.2,1.3h0c.25.1.51.2.78.29l.14,0,.69.17.21,0c.22,0,.44.08.67.1l.23,0a8.69,8.69,0,0,0,.89,0,7.36,7.36,0,0,0,1.16-.09l.33,0c.29-.05.57-.11.85-.18l.29-.08A7.69,7.69,0,0,0,29.42,46l.14-.07c.29-.13.57-.28.85-.43l.28-.18a6.54,6.54,0,0,0,.71-.5l.2-.14a9.23,9.23,0,0,0,.8-.73l.17-.18c.2-.22.38-.44.56-.66l.19-.27a7.11,7.11,0,0,0,.51-.79l.07-.11L34,42a7,7,0,0,0,.5.79l.2.27.56.66.17.18a9.23,9.23,0,0,0,.8.73l.2.14a5.14,5.14,0,0,0,.72.5l.27.18c.27.15.56.3.84.43l.15.07a7.69,7.69,0,0,0,1,.37l.29.08c.28.07.56.13.85.18l.33,0a7.36,7.36,0,0,0,1.16.09,7.46,7.46,0,0,0,1.16-.09l.32,0c.29-.05.57-.11.85-.18l.29-.08A7.69,7.69,0,0,0,45.74,46l.15-.07c.29-.13.57-.28.84-.43l.28-.18a6.54,6.54,0,0,0,.71-.5l.2-.14a9.23,9.23,0,0,0,.8-.73l.17-.18c.2-.22.38-.44.56-.66l.19-.27a7.18,7.18,0,0,0,.52-.79.6.6,0,0,0,.06-.11.76.76,0,0,1,.08.11,8.92,8.92,0,0,0,.51.79l.19.27.56.66.17.18a8.09,8.09,0,0,0,.81.73l.19.14a5.79,5.79,0,0,0,.72.5l.27.18c.28.15.56.3.85.43l.15.07a8.06,8.06,0,0,0,1,.37l.29.08c.28.07.56.13.85.18l.33,0a7.36,7.36,0,0,0,1.16.09,8.69,8.69,0,0,0,.89,0l.24,0c.22,0,.44-.06.66-.1l.21,0,.69-.17.14,0,.79-.29h0a9.38,9.38,0,0,0,2.2-1.3Zm1.17-51.34a1.17,1.17,0,1,0,0,2.33v3.54a7.1,7.1,0,0,1-.11,1.14,1.16,1.16,0,0,0-1.06,1.15,1.14,1.14,0,0,0,.4.86c0,.06,0,.12-.08.17l0,.08-.13.2a6.39,6.39,0,0,1-.5.74,0,0,0,0,0,0,0,7.12,7.12,0,0,1-.58.64l-.13.12-.21.18A1.18,1.18,0,0,0,78.2,42a1.14,1.14,0,0,0-.9,1.87l-.19.07-.45.15-.33.09-.52.1-.28,0a7.36,7.36,0,0,1-.82.06,7,7,0,0,1-2.59-.51,1.13,1.13,0,0,0,.25-.7,1.16,1.16,0,0,0-2.21-.49,7.06,7.06,0,0,1-1.69-2.14,1.15,1.15,0,0,0,.41-.87,1.16,1.16,0,0,0-1.07-1.15,7.11,7.11,0,0,1-.1-1.14V33.85a1.17,1.17,0,1,0,0-2.33V30.39h14Z"/>
      <path d="M72.37,65.37a1.16,1.16,0,0,0-1.16,1.17V70a1.17,1.17,0,0,0,2.33,0v-3.5a1.17,1.17,0,0,0-1.17-1.17Z"/>
      <path d="M36.24,60.71a1.2,1.2,0,0,0,.82-.34l4.67-4.67a1.18,1.18,0,0,0,0-1.65,1.19,1.19,0,0,0-1.66,0l-4.66,4.67a1.18,1.18,0,0,0,0,1.65,1.19,1.19,0,0,0,.83.34Z"/>
      <path d="M36.24,66.54a1.17,1.17,0,0,0,.82-.35l2.33-2.32a1.17,1.17,0,0,0-1.65-1.66l-2.33,2.34a1.17,1.17,0,0,0,.83,2Zm0,0"/>
      <path d="M40.07,59.88a1.22,1.22,0,0,0-.34.83,1.16,1.16,0,0,0,1.17,1.16,1.3,1.3,0,0,0,.83-.33,1.24,1.24,0,0,0,.34-.83,1.22,1.22,0,0,0-.34-.83,1.23,1.23,0,0,0-1.66,0Z"/>
      <path d="M42.41,59.2a1.14,1.14,0,0,0,.82.34,1.13,1.13,0,0,0,.82-.34l3.5-3.5a1.16,1.16,0,0,0,0-1.65,1.18,1.18,0,0,0-1.65,0l-3.49,3.5a1.16,1.16,0,0,0,0,1.65Z"/>
      <path d="M36.24,72.37a1.17,1.17,0,0,0,.82-.35L47.55,61.53a1.16,1.16,0,0,0,0-1.65,1.18,1.18,0,0,0-1.65,0L35.41,70.38a1.17,1.17,0,0,0,.83,2Z"/>
      <path d="M48.23,59.2a1.18,1.18,0,0,0,1.66,0,1.16,1.16,0,1,0-1.66,0Z"/>
    </symbol>

    <!-- ACCOUNT -->
    <symbol id="icon-account2" viewBox="0 0 100 100" fill="currentColor">
    <path d="M51.81,20.2a4,4,0,1,0,4,4A4,4,0,0,0,51.81,20.2Zm0,5.67a1.7,1.7,0,1,1,1.7-1.7A1.7,1.7,0,0,1,51.81,25.87Z"/>
    <path d="M28,20.2a4,4,0,1,0,4,4A4,4,0,0,0,28,20.2Zm0,5.67a1.7,1.7,0,1,1,1.7-1.7A1.7,1.7,0,0,1,28,25.87Z"/>
    <path d="M28,71.26a4,4,0,1,0,4,4A4,4,0,0,0,28,71.26Zm0,5.68a1.71,1.71,0,1,1,1.7-1.71A1.71,1.71,0,0,1,28,76.94Z"/>
    <path d="M69.4,36.11V16.8H20.61V82.61H47.88a16.84,16.84,0,0,0,6.21,1.13,16.09,16.09,0,0,0,7.4-1.68,16,16,0,0,0,7.34,1.68c6.69,0,11.91-3.49,11.91-7.93V44C80.74,39.7,75.8,36.3,69.4,36.11Zm-3.4-17h1.13v17.1c-.39,0-.76.09-1.13.15Zm-3.4,0h1.12V36.84c-.38.12-.76.25-1.12.4Zm-3.41,0h1.13V38.42a11.51,11.51,0,0,0-1.13.91ZM22.88,80.34V19.07h34V49.93h0l-1.14-.14s0,0,0-.09a15.75,15.75,0,0,0-2.28-8.13V29.14l-1.23.11a3.71,3.71,0,0,1-.47,0,5.12,5.12,0,0,1-5.11-5.11c0-.15,0-.31,0-.46l.11-1.24H33l.1,1.24a3.55,3.55,0,0,1,0,.46A5.11,5.11,0,0,1,28,29.28a3.55,3.55,0,0,1-.46,0l-1.24-.11V41.57l0,.07c-.16.26-.3.51-.44.77s-.34.68-.49,1c-.06.13-.1.26-.16.4-.13.32-.25.66-.36,1-.05.14-.09.29-.13.43-.1.33-.18.67-.26,1,0,.15-.07.3-.1.45-.06.35-.11.71-.16,1.07,0,.14,0,.28-.05.42-.05.5-.08,1-.08,1.5a15.11,15.11,0,0,0,.08,1.51c0,.15,0,.28.05.43.05.35.1.71.16,1.06,0,.15.06.3.1.45.08.34.16.68.26,1,0,.14.08.29.13.43.11.34.23.67.36,1,.06.13.1.26.16.39.15.34.31.68.49,1s.28.52.43.77l.05.07V70.26l1.24-.11.46,0a5.11,5.11,0,0,1,5.11,5.1,3.75,3.75,0,0,1,0,.48L33,76.94h9.33c0,.1.05.19.07.28a3.37,3.37,0,0,0,.1.34c0,.1.07.19.1.27a7,7,0,0,0,1.69,2.51ZM47.71,43.52l-.22-.44L47,43a6.79,6.79,0,0,0-4.56,1,6.72,6.72,0,0,0-3.7-1.11,4.49,4.49,0,0,0-3.43,1.94c-.09.11-.17.21-.25.29a1.52,1.52,0,0,1-.38.05,1.92,1.92,0,0,1-1.35-.68L29.82,40.6c.22-.24.43-.48.66-.7l.31-.28c.27-.25.56-.49.85-.71l.44-.34c.3-.21.61-.4.93-.59l.38-.23a12.21,12.21,0,0,1,1.32-.63l.52-.19,1-.32.57-.14c.34-.08.69-.15,1-.2l.5-.08a13.85,13.85,0,0,1,1.59-.1,14,14,0,0,1,1.59.1l.49.08c.36,0,.71.12,1.06.2l.56.14,1,.32c.17.06.35.12.51.19a10.78,10.78,0,0,1,1.33.63l.38.23c.31.19.62.38.92.59s.3.22.45.34.57.46.85.71l.31.28a13.69,13.69,0,0,1,4.19,9.8v0l-.35,0-.56,0-.63.06-.54.07-.6.1-.53.1-.57.14-.5.14-.55.17-.06,0A11.53,11.53,0,0,0,47.71,43.52ZM29.78,37.47c-.2.17-.39.35-.58.53s-.41.36-.6.55l-.05.05V31.53a7.39,7.39,0,0,0,6.79-6.78h9.11a7.4,7.4,0,0,0,6.79,6.78V38.6l-.05-.05c-.19-.19-.39-.37-.6-.55s-.38-.36-.58-.53a2,2,0,0,0-.23-.18,15.77,15.77,0,0,0-8.15-3.37l-.11,0c-.53,0-1.08-.08-1.62-.08s-1.09,0-1.62.08l-.11,0A15.8,15.8,0,0,0,30,37.29ZM29.85,62c.16.13.32.23.48.35s.58.44.88.64.43.27.65.39.54.32.83.46l.7.34c.28.13.58.25.89.36l.7.26c.33.11.68.2,1,.28s.42.13.64.17c.55.11,1.09.2,1.66.26.18,0,.38,0,.56,0,.34,0,.69,0,1,0h.17c.31,0,.63,0,.94-.06s.59,0,.89-.07l.27,0v9.25H35.34a7.39,7.39,0,0,0-6.79-6.79V60.81l.05,0A15.07,15.07,0,0,0,29.85,62Zm0-3.19L33.32,55A1.94,1.94,0,0,1,35,54.27l.16,0c.17.14.54.48.79.71a14.06,14.06,0,0,0,1.35,1.15,3.63,3.63,0,0,0,2.19,1.92,4.28,4.28,0,0,0,2.68-.2V63.1l-.37.07-.55.07a12.22,12.22,0,0,1-1.35.08,13.85,13.85,0,0,1-1.59-.1l-.5-.07c-.35-.06-.7-.13-1-.21l-.57-.14c-.33-.1-.65-.2-1-.32l-.52-.19a14.43,14.43,0,0,1-1.32-.63L33,61.43c-.32-.18-.63-.38-.93-.59l-.44-.33c-.29-.23-.58-.46-.85-.71l-.31-.28C30.25,59.3,30,59.05,29.82,58.81Zm14.31-5.58c-.12.12-.22.24-.32.35l-.26.3c-.1.12-.18.25-.27.38a3.37,3.37,0,0,0-.21.31c-.08.13-.15.28-.22.41l0,0a3.79,3.79,0,0,1-2.71.88c-.14,0-.55-.15-.91-1L39,54.28l-.46-.05c-.24-.18-.71-.61-1-.89A4.74,4.74,0,0,0,36,52.19,2.91,2.91,0,0,0,35.4,52a4.1,4.1,0,0,0-3.75,1.39L28.42,57h0l-.27-.44L27.84,56c-.15-.29-.29-.58-.42-.88-.05-.11-.1-.22-.14-.33-.12-.29-.23-.59-.32-.88a1.83,1.83,0,0,1-.08-.25c-.12-.39-.23-.79-.31-1.18l0-.16c-.07-.35-.12-.71-.16-1.07,0-.1,0-.2,0-.31,0-.41-.06-.82-.06-1.25s0-.83.06-1.24c0-.11,0-.21,0-.31,0-.36.09-.72.16-1.07l0-.16a12,12,0,0,1,.31-1.18c0-.08.05-.16.07-.25.1-.29.21-.59.33-.88,0-.11.09-.22.14-.33.13-.31.27-.61.43-.91.08-.15.17-.3.26-.45s.19-.32.29-.48l0,0L31.68,46a4.21,4.21,0,0,0,3.07,1.42,3.73,3.73,0,0,0,1.2-.2,2.78,2.78,0,0,0,1.12-.93c.56-.66,1-1.13,1.7-1.13a4.55,4.55,0,0,1,3,1.18L43,47.6,43.6,46a5,5,0,0,1,2.33-.87,8.69,8.69,0,0,1-.16,6.8,1.82,1.82,0,0,0-.23.15l-.41.29-.34.27-.36.32C44.33,53.05,44.22,53.13,44.13,53.23Zm.65,3a5.26,5.26,0,0,1,1.55-1.87l.14-.11a7.07,7.07,0,0,1,.63-.44,13.43,13.43,0,0,1,7-1.81,14,14,0,0,1,1.83.11h0a17.24,17.24,0,0,1,1.77.32c.49.13,1,.28,1.42.45l.65.26.34.16a9.35,9.35,0,0,1,.89.49l.19.12a7.07,7.07,0,0,1,1.54,1.35.08.08,0,0,0,0,0c.13.18.26.35.36.52l0,.06c.09.17.17.33.24.5a.31.31,0,0,1,0,.1,3.64,3.64,0,0,1,.14.47.53.53,0,0,0,0,.12,3,3,0,0,1,0,.6c0,3.07-4.41,5.67-9.63,5.67s-9.65-2.6-9.65-5.67A3.34,3.34,0,0,1,44.78,56.21Z"/>
    <path d="M63.69,62.57a2.7,2.7,0,0,1,0,.28,2.86,2.86,0,0,1-.07.28c0,.09,0,.18-.09.27a2,2,0,0,1-.12.27l-.13.26c-.05.09-.11.17-.17.26a2.79,2.79,0,0,1-.17.25l-.21.25c-.07.08-.13.16-.2.23l-.26.24a2.39,2.39,0,0,1-.23.22l-.3.23-.26.2L61.1,66l-.29.18-.36.19-.33.18-.4.17-.34.15-.43.15-.36.13-.46.13-.37.11-.5.11-.38.08-.55.08-.35,0-.63.07-.31,0c-.31,0-.63,0-.95,0s-.65,0-1,0l-.31,0-.63-.07-.35,0-.55-.08-.38-.09-.49-.1L50,67.31l-.46-.13-.36-.13-.43-.15-.34-.15-.4-.18-.32-.17-.37-.19L47.06,66l-.33-.21-.27-.2-.29-.23c-.09-.07-.16-.15-.24-.22l-.26-.24c-.07-.08-.13-.16-.2-.23l-.21-.26-.17-.24c-.06-.09-.12-.18-.17-.27s-.08-.17-.13-.25-.09-.19-.12-.28a2,2,0,0,1-.08-.26,2.45,2.45,0,0,1-.08-.29,2.51,2.51,0,0,1,0-.27,1.11,1.11,0,0,1,0-.19l.16.13c.17.15.34.28.53.42a3.55,3.55,0,0,0,.31.23c.2.14.41.27.62.4l.3.18a10.6,10.6,0,0,0,1,.51l0,0c.35.15.7.28,1.06.41l.38.12.8.24.46.11.81.16.47.08.89.1a3.27,3.27,0,0,0,.44,0c.44,0,.9.06,1.37.06s.91,0,1.36,0l.43-.05c.3,0,.6-.06.9-.1l.47-.08.81-.16.45-.11c.27-.07.54-.16.8-.24l.38-.12c.36-.13.72-.26,1.05-.41l0,0a8.54,8.54,0,0,0,1-.51c.11-.05.2-.12.3-.17s.43-.26.63-.4l.31-.24a5.3,5.3,0,0,0,.52-.42l.16-.12A1.1,1.1,0,0,1,63.69,62.57Z"/>
    </symbol>


  </defs>
</svg>
