<svg xmlns="http://www.w3.org/2000/svg" viewBox="0 0 100 125" x="0px" y="0px"><title>Noun_Project_50Icon_5px_grid</title><g data-name="Capa 2"><path d="M50.26,53.13A10.49,10.49,0,1,0,60.75,63.62,10.5,10.5,0,0,0,50.26,53.13Zm0,18.65a8.16,8.16,0,1,1,8.16-8.16A8.17,8.17,0,0,1,50.26,71.78Z"/><path d="M43.84,49.63a1.75,1.75,0,1,0-1.74-1.75,1.76,1.76,0,0,0,1.74,1.75Z"/><path d="M56.67,49.63a1.75,1.75,0,1,0-1.75-1.75,1.76,1.76,0,0,0,1.75,1.75Z"/><path d="M47.35,61.29A1.75,1.75,0,1,0,49.09,63a1.75,1.75,0,0,0-1.74-1.75Z"/><path d="M53.18,61.29A1.75,1.75,0,1,0,54.92,63a1.75,1.75,0,0,0-1.74-1.75Z"/><path d="M76.21,36.09,76.77,32l-2.37.24v0l-.26,0c-3.19-5-7.86-8.1-14.21-9.57a11.07,11.07,0,0,0-20.49,0c-6.35,1.47-11,4.61-14.2,9.57l-.26,0v0L22.58,32l.56,4.09A35,35,0,0,0,20,50.8,33.92,33.92,0,0,0,30.44,75.67v5.42A3.52,3.52,0,0,0,34,84.61h8.94a1.54,1.54,0,0,0,1.54-1.55v-.14a26.71,26.71,0,0,0,10.49,0v.16a1.54,1.54,0,0,0,1.53,1.53h8.74a3.73,3.73,0,0,0,3.73-3.72V75.67A34,34,0,0,0,79.41,50.8,34.86,34.86,0,0,0,76.21,36.09Zm-2.15-1.48-.45,3.25a8.34,8.34,0,0,1-2.08,4,16.36,16.36,0,0,0-2,3.06c-.15-.27-.33-.52-.49-.78s-.39-.65-.6-.95-.53-.72-.79-1.07-.34-.46-.52-.67-.61-.68-.92-1-.39-.41-.58-.61S65,39.3,64.7,39s-.49-.44-.75-.65l-.2-.19.37-.2c2.79-1.51,5.42-2.93,8.71-3.26Zm-33-9a1.1,1.1,0,0,0,0-.16,9.07,9.07,0,0,1,.34-1.34,8.73,8.73,0,0,1,16.53,0,9.07,9.07,0,0,1,.34,1.34.78.78,0,0,1,0,.16,7.5,7.5,0,0,1,.12,1.34,8.42,8.42,0,0,1-.21,1.86l-.24-.1c-.44-.19-.89-.38-1.35-.54-.18-.07-.36-.12-.55-.18-.39-.13-.78-.26-1.19-.36l-.9-.21c-.31-.07-.61-.14-.92-.19s-.8-.12-1.2-.17-.48-.07-.73-.09h-.06c-.52-.05-1.06-.07-1.59-.08h-.11q-.63,0-1.26.06H47.9c-.42,0-.85.06-1.27.11l-.26,0a1.38,1.38,0,0,1-.2,0L45,27.24l-.62.14c-.48.11-1,.23-1.41.37s-.68.2-1,.32l-.11.05-.43.17-.34.13a8.68,8.68,0,0,1-.14-1.52A10,10,0,0,1,41,25.56Zm-2.31-.3a.57.57,0,0,0,0,.13,10.18,10.18,0,0,0,.21,4.13A16.64,16.64,0,0,0,35.74,32a1.17,1.17,0,0,0,1.66,1.65,14.05,14.05,0,0,1,3.33-2.45l.12-.06c.27-.15.53-.27.78-.39l.59-.25.47-.2c.32-.11.65-.22,1-.31s.91-.26,1.39-.36l.36-.08c.39-.08.8-.14,1.2-.19l.25,0c.41,0,.82-.08,1.24-.1.25,0,.49,0,.74,0h.36c.56,0,1.12,0,1.68.07a18.44,18.44,0,0,1,2,.26h0a19.05,19.05,0,0,1,1.88.44l.13.05a16.64,16.64,0,0,1,1.72.6l.09,0a15.7,15.7,0,0,1,1.65.8l.42.23.26.14a13.3,13.3,0,0,1,2.44,1.91,1.15,1.15,0,0,0,.82.35,1.14,1.14,0,0,0,.82-.35,1.16,1.16,0,0,0,0-1.65,15.69,15.69,0,0,0-2.76-2.18,10.9,10.9,0,0,0,.42-3,10.73,10.73,0,0,0-.11-1.51.66.66,0,0,1,0-.14,19.41,19.41,0,0,1,10.89,7.3l-.17,0c-.16,0-.32.06-.48.09l-.76.17-.49.13-.7.22-.48.16c-.23.09-.45.16-.67.26s-.31.12-.47.18l-.67.29-.42.2-.71.34-.36.18-.82.43-.25.12L63,35.94l-1.44.77a22.51,22.51,0,0,0-23.79,0l-1.43-.77-1.07-.57L35,35.23l-.81-.42-.37-.18-.7-.34-.43-.2-.67-.29-.46-.19c-.22-.09-.44-.16-.67-.24l-.48-.17c-.23-.08-.47-.15-.7-.21l-.5-.14-.75-.17c-.17,0-.32-.07-.49-.09l-.16,0A19.32,19.32,0,0,1,38.73,25.26Zm-12.2,9.47c3.29.33,5.92,1.75,8.71,3.26l.37.2c-.07.06-.13.13-.21.19-.25.2-.5.42-.74.64s-.64.56-.94.85l-.56.6c-.32.34-.64.67-.94,1s-.33.43-.49.65-.57.71-.82,1.09-.4.62-.59.94-.34.52-.5.79a16.34,16.34,0,0,0-2-3.06,8.31,8.31,0,0,1-2.09-4l-.45-3.25Zm3.91,37.65A31.84,31.84,0,0,1,22.28,50.8,33.13,33.13,0,0,1,24,40.22a.59.59,0,0,1,0,.08q.18.41.39.78s0,0,0,0a7.92,7.92,0,0,0,.42.69c.05.08.1.14.14.21s.25.34.37.51.09.12.13.19l.48.62a12.55,12.55,0,0,1,2,3.23l.5,1.35a22.46,22.46,0,0,0,2,20.19Zm11.66,9.9H34a1.19,1.19,0,0,1-1.18-1.19V71.23c.21.23.44.46.66.69l.25.25c.45.45.93.88,1.41,1.29l.32.26A22.4,22.4,0,0,0,38.73,76l.25.14a21.79,21.79,0,0,0,3.12,1.39Zm12.82-1.73a25.06,25.06,0,0,1-10.49,0V78.14a21.81,21.81,0,0,0,10.49,0Zm11.66.34a1.39,1.39,0,0,1-1.39,1.39H57.26v-4.8a22.3,22.3,0,0,0,3.12-1.39l.24-.13A22.71,22.71,0,0,0,64,73.71l.3-.24c.49-.42,1-.85,1.42-1.3l.24-.25c.22-.23.45-.45.66-.69Zm.13-13.65c-.19.29-.4.57-.61.86l-.5.67c-.2.25-.41.48-.62.72s-.42.47-.64.7-.41.41-.62.61-.5.48-.77.7-.4.34-.6.51-.62.46-.93.69l-.57.39c-.36.24-.74.46-1.11.68l-.48.28c-.47.24-.94.47-1.43.68l-.27.12a20.23,20.23,0,0,1-15.77,0l-.27-.12c-.49-.21-1-.43-1.43-.68l-.47-.28c-.39-.22-.76-.44-1.12-.68l-.57-.39c-.31-.23-.62-.45-.92-.69l-.61-.5-.77-.71c-.21-.2-.42-.4-.62-.61s-.43-.46-.64-.7-.41-.47-.61-.72-.34-.45-.51-.67l-.61-.86a20.26,20.26,0,0,1-1.82-19c.09-.23.2-.45.3-.67s.31-.67.48-1,.22-.41.33-.61c.2-.37.43-.72.66-1.08l.26-.4a20.26,20.26,0,0,1,2.32-2.81l.28-.27c.33-.33.68-.64,1-1l.39-.33c.36-.29.73-.57,1.11-.83l.36-.26a20.33,20.33,0,0,1,22.63,0c.13.08.24.17.36.26.38.26.75.54,1.11.82l.4.34c.36.31.71.62,1,1l.29.27a21.43,21.43,0,0,1,2.31,2.81c.09.13.18.26.26.4.24.36.46.72.66,1.09.12.2.23.39.34.6s.32.66.48,1,.2.43.29.66a20.26,20.26,0,0,1-1.82,19Zm2.21,5.14V68.1a22.5,22.5,0,0,0,2-20.19l.51-1.35a12.25,12.25,0,0,1,2-3.23l.48-.62.13-.19.37-.51.14-.21c.15-.22.29-.45.43-.69l0,0a6.08,6.08,0,0,0,.37-.77.56.56,0,0,0,0-.08A32.85,32.85,0,0,1,77.07,50.8,31.88,31.88,0,0,1,68.92,72.38Z"/></g><text x="0" y="115" fill="#000000" font-size="5px" font-weight="bold" font-family="'Helvetica Neue', Helvetica, Arial-Unicode, Arial, Sans-serif">Created by Desireé Bolívar</text><text x="0" y="120" fill="#000000" font-size="5px" font-weight="bold" font-family="'Helvetica Neue', Helvetica, Arial-Unicode, Arial, Sans-serif">from the Noun Project</text></svg>