<svg xmlns="http://www.w3.org/2000/svg" viewBox="0 0 100 125" x="0px" y="0px"><title>Noun_Project_50Icon_5px_grid</title><g data-name="Capa 2"><path d="M85.41,81.27V33.84H70.82V81.27H67.16V43.57H52.57v37.7H48.92v-28H34.33v28H30.67v-17H16.08v17H14.86a1.22,1.22,0,0,0,0,2.44H85.41a1.22,1.22,0,0,0,0-2.44Zm-57.16,0H18.51V66.68h9.74Zm18.24,0H36.76V55.73h9.73Zm18.25,0H55V46h9.74Zm18.24,0H73.24v-45H83Z"/><path d="M23.42,47.62a1.2,1.2,0,0,0,.6-.16L68.14,22l-2.76,6.07a1.21,1.21,0,0,0,.6,1.61,1.24,1.24,0,0,0,.5.1,1.22,1.22,0,0,0,1.11-.71l4.33-9.52s0-.06,0-.09a.76.76,0,0,0,.06-.2.29.29,0,0,1,0-.1s0,0,0,0V19a1.38,1.38,0,0,0,0-.2l0-.14-.06-.12a.38.38,0,0,0,0-.1.46.46,0,0,1-.07-.07l-.08-.11a.9.9,0,0,0-.1-.09L71.46,18,71.35,18l0,0a.18.18,0,0,0-.1,0l-.2-.06-.09,0-10.41-1a1.22,1.22,0,0,0-.24,2.42l6.63.64L22.8,45.35a1.22,1.22,0,0,0,.62,2.27Z"/></g><text x="0" y="115" fill="#000000" font-size="5px" font-weight="bold" font-family="'Helvetica Neue', Helvetica, Arial-Unicode, Arial, Sans-serif">Created by Desireé Bolívar</text><text x="0" y="120" fill="#000000" font-size="5px" font-weight="bold" font-family="'Helvetica Neue', Helvetica, Arial-Unicode, Arial, Sans-serif">from the Noun Project</text></svg>