<svg xmlns="http://www.w3.org/2000/svg" viewBox="0 0 100 125" x="0px" y="0px"><title>Noun_Project_50Icon_5px_grid</title><g data-name="Capa 2"><path d="M51.81,20.2a4,4,0,1,0,4,4A4,4,0,0,0,51.81,20.2Zm0,5.67a1.7,1.7,0,1,1,1.7-1.7A1.7,1.7,0,0,1,51.81,25.87Z"/><path d="M28,20.2a4,4,0,1,0,4,4A4,4,0,0,0,28,20.2Zm0,5.67a1.7,1.7,0,1,1,1.7-1.7A1.7,1.7,0,0,1,28,25.87Z"/><path d="M28,71.26a4,4,0,1,0,4,4A4,4,0,0,0,28,71.26Zm0,5.68a1.71,1.71,0,1,1,1.7-1.71A1.71,1.71,0,0,1,28,76.94Z"/><path d="M69.4,36.11V16.8H20.61V82.61H47.88a16.84,16.84,0,0,0,6.21,1.13,16.09,16.09,0,0,0,7.4-1.68,16,16,0,0,0,7.34,1.68c6.69,0,11.91-3.49,11.91-7.93V44C80.74,39.7,75.8,36.3,69.4,36.11Zm-3.4-17h1.13v17.1c-.39,0-.76.09-1.13.15Zm-3.4,0h1.12V36.84c-.38.12-.76.25-1.12.4Zm-3.41,0h1.13V38.42a11.51,11.51,0,0,0-1.13.91ZM22.88,80.34V19.07h34V49.93h0l-1.14-.14s0,0,0-.09a15.75,15.75,0,0,0-2.28-8.13V29.14l-1.23.11a3.71,3.71,0,0,1-.47,0,5.12,5.12,0,0,1-5.11-5.11c0-.15,0-.31,0-.46l.11-1.24H33l.1,1.24a3.55,3.55,0,0,1,0,.46A5.11,5.11,0,0,1,28,29.28a3.55,3.55,0,0,1-.46,0l-1.24-.11V41.57l0,.07c-.16.26-.3.51-.44.77s-.34.68-.49,1c-.06.13-.1.26-.16.4-.13.32-.25.66-.36,1-.05.14-.09.29-.13.43-.1.33-.18.67-.26,1,0,.15-.07.3-.1.45-.06.35-.11.71-.16,1.07,0,.14,0,.28-.05.42-.05.5-.08,1-.08,1.5a15.11,15.11,0,0,0,.08,1.51c0,.15,0,.28.05.43.05.35.1.71.16,1.06,0,.15.06.3.1.45.08.34.16.68.26,1,0,.14.08.29.13.43.11.34.23.67.36,1,.06.13.1.26.16.39.15.34.31.68.49,1s.28.52.43.77l.05.07V70.26l1.24-.11.46,0a5.11,5.11,0,0,1,5.11,5.1,3.75,3.75,0,0,1,0,.48L33,76.94h9.33c0,.1.05.19.07.28a3.37,3.37,0,0,0,.1.34c0,.1.07.19.1.27a7,7,0,0,0,1.69,2.51ZM47.71,43.52l-.22-.44L47,43a6.79,6.79,0,0,0-4.56,1,6.72,6.72,0,0,0-3.7-1.11,4.49,4.49,0,0,0-3.43,1.94c-.09.11-.17.21-.25.29a1.52,1.52,0,0,1-.38.05,1.92,1.92,0,0,1-1.35-.68L29.82,40.6c.22-.24.43-.48.66-.7l.31-.28c.27-.25.56-.49.85-.71l.44-.34c.3-.21.61-.4.93-.59l.38-.23a12.21,12.21,0,0,1,1.32-.63l.52-.19,1-.32.57-.14c.34-.08.69-.15,1-.2l.5-.08a13.85,13.85,0,0,1,1.59-.1,14,14,0,0,1,1.59.1l.49.08c.36,0,.71.12,1.06.2l.56.14,1,.32c.17.06.35.12.51.19a10.78,10.78,0,0,1,1.33.63l.38.23c.31.19.62.38.92.59s.3.22.45.34.57.46.85.71l.31.28a13.69,13.69,0,0,1,4.19,9.8v0l-.35,0-.56,0-.63.06-.54.07-.6.1-.53.1-.57.14-.5.14-.55.17-.06,0A11.53,11.53,0,0,0,47.71,43.52ZM29.78,37.47c-.2.17-.39.35-.58.53s-.41.36-.6.55l-.05.05V31.53a7.39,7.39,0,0,0,6.79-6.78h9.11a7.4,7.4,0,0,0,6.79,6.78V38.6l-.05-.05c-.19-.19-.39-.37-.6-.55s-.38-.36-.58-.53a2,2,0,0,0-.23-.18,15.77,15.77,0,0,0-8.15-3.37l-.11,0c-.53,0-1.08-.08-1.62-.08s-1.09,0-1.62.08l-.11,0A15.8,15.8,0,0,0,30,37.29ZM29.85,62c.16.13.32.23.48.35s.58.44.88.64.43.27.65.39.54.32.83.46l.7.34c.28.13.58.25.89.36l.7.26c.33.11.68.2,1,.28s.42.13.64.17c.55.11,1.09.2,1.66.26.18,0,.38,0,.56,0,.34,0,.69,0,1,0h.17c.31,0,.63,0,.94-.06s.59,0,.89-.07l.27,0v9.25H35.34a7.39,7.39,0,0,0-6.79-6.79V60.81l.05,0A15.07,15.07,0,0,0,29.85,62Zm0-3.19L33.32,55A1.94,1.94,0,0,1,35,54.27l.16,0c.17.14.54.48.79.71a14.06,14.06,0,0,0,1.35,1.15,3.63,3.63,0,0,0,2.19,1.92,4.28,4.28,0,0,0,2.68-.2V63.1l-.37.07-.55.07a12.22,12.22,0,0,1-1.35.08,13.85,13.85,0,0,1-1.59-.1l-.5-.07c-.35-.06-.7-.13-1-.21l-.57-.14c-.33-.1-.65-.2-1-.32l-.52-.19a14.43,14.43,0,0,1-1.32-.63L33,61.43c-.32-.18-.63-.38-.93-.59l-.44-.33c-.29-.23-.58-.46-.85-.71l-.31-.28C30.25,59.3,30,59.05,29.82,58.81Zm14.31-5.58c-.12.12-.22.24-.32.35l-.26.3c-.1.12-.18.25-.27.38a3.37,3.37,0,0,0-.21.31c-.08.13-.15.28-.22.41l0,0a3.79,3.79,0,0,1-2.71.88c-.14,0-.55-.15-.91-1L39,54.28l-.46-.05c-.24-.18-.71-.61-1-.89A4.74,4.74,0,0,0,36,52.19,2.91,2.91,0,0,0,35.4,52a4.1,4.1,0,0,0-3.75,1.39L28.42,57h0l-.27-.44L27.84,56c-.15-.29-.29-.58-.42-.88-.05-.11-.1-.22-.14-.33-.12-.29-.23-.59-.32-.88a1.83,1.83,0,0,1-.08-.25c-.12-.39-.23-.79-.31-1.18l0-.16c-.07-.35-.12-.71-.16-1.07,0-.1,0-.2,0-.31,0-.41-.06-.82-.06-1.25s0-.83.06-1.24c0-.11,0-.21,0-.31,0-.36.09-.72.16-1.07l0-.16a12,12,0,0,1,.31-1.18c0-.08.05-.16.07-.25.1-.29.21-.59.33-.88,0-.11.09-.22.14-.33.13-.31.27-.61.43-.91.08-.15.17-.3.26-.45s.19-.32.29-.48l0,0L31.68,46a4.21,4.21,0,0,0,3.07,1.42,3.73,3.73,0,0,0,1.2-.2,2.78,2.78,0,0,0,1.12-.93c.56-.66,1-1.13,1.7-1.13a4.55,4.55,0,0,1,3,1.18L43,47.6,43.6,46a5,5,0,0,1,2.33-.87,8.69,8.69,0,0,1-.16,6.8,1.82,1.82,0,0,0-.23.15l-.41.29-.34.27-.36.32C44.33,53.05,44.22,53.13,44.13,53.23Zm.65,3a5.26,5.26,0,0,1,1.55-1.87l.14-.11a7.07,7.07,0,0,1,.63-.44,13.43,13.43,0,0,1,7-1.81,14,14,0,0,1,1.83.11h0a17.24,17.24,0,0,1,1.77.32c.49.13,1,.28,1.42.45l.65.26.34.16a9.35,9.35,0,0,1,.89.49l.19.12a7.07,7.07,0,0,1,1.54,1.35.08.08,0,0,0,0,0c.13.18.26.35.36.52l0,.06c.09.17.17.33.24.5a.31.31,0,0,1,0,.1,3.64,3.64,0,0,1,.14.47.53.53,0,0,0,0,.12,3,3,0,0,1,0,.6c0,3.07-4.41,5.67-9.63,5.67s-9.65-2.6-9.65-5.67A3.34,3.34,0,0,1,44.78,56.21Zm33.67,10.9a2.16,2.16,0,0,1,0,.27c0,.1,0,.19-.07.29l-.08.26-.13.28c0,.08-.08.17-.13.25l-.16.26a2.27,2.27,0,0,1-.18.25,2.39,2.39,0,0,1-.21.26c-.06.08-.13.15-.2.23L77,69.7a2.61,2.61,0,0,1-.24.22,3.67,3.67,0,0,1-.29.23l-.26.2-.34.21a2.9,2.9,0,0,1-.29.19l-.36.19-.33.17-.4.17-.33.15-.44.16-.36.13-.46.13-.37.11-.5.11-.37.07-.55.09-.36,0q-.32,0-.63.06a3,3,0,0,1-.31,0q-.47,0-1,0a15.81,15.81,0,0,1-1.69-.1l-.5-.07c-.22,0-.43-.08-.64-.12V69.9a1.81,1.81,0,0,0,.23,0c.32,0,.62.09.93.11l.38,0c.44,0,.86,0,1.29,0s.92,0,1.37,0l.43,0c.3,0,.6-.06.9-.1l.47-.08.81-.17a3.84,3.84,0,0,0,.46-.11c.27-.06.53-.15.79-.23l.38-.12a11.1,11.1,0,0,0,1.06-.41l0,0c.35-.15.68-.33,1-.51a2.29,2.29,0,0,0,.29-.18l.63-.39.31-.24c.18-.14.36-.27.52-.42l.16-.13C78.46,67,78.45,67.05,78.45,67.11Zm0,4.35c0,.06,0,.13,0,.19a2.56,2.56,0,0,1,0,.27,2.29,2.29,0,0,1-.07.28c0,.09,0,.18-.08.27s-.09.18-.13.28L78,73l-.16.26a2.27,2.27,0,0,1-.18.25,2.39,2.39,0,0,1-.21.26l-.2.22a3.07,3.07,0,0,1-.26.25,1.64,1.64,0,0,1-.24.21,2.31,2.31,0,0,1-.29.24l-.26.2-.34.21-.29.18-.36.2-.33.17-.4.17c-.11.05-.22.11-.33.15l-.44.16c-.12,0-.23.09-.36.12l-.46.14-.37.1-.5.11-.37.08-.55.08a2.25,2.25,0,0,1-.36.06c-.21,0-.42,0-.63.06l-.31,0q-.47,0-1,0c-.44,0-.88,0-1.31-.07l-.35,0c-.36,0-.73-.09-1.09-.15l-.15,0a6.09,6.09,0,0,0,.07-.85V74.44l.23,0,.93.11c.13,0,.25,0,.38,0,.44,0,.86.06,1.29.06s.92,0,1.37-.06l.43,0c.3,0,.6-.07.9-.12l.47-.07.81-.16.46-.11c.27-.08.53-.15.79-.24s.26-.07.38-.12c.37-.13.72-.26,1.06-.41l0,0c.35-.16.68-.33,1-.51l.29-.18c.22-.13.43-.26.63-.4l.31-.22.52-.43Zm0-8.89c0,.09,0,.18,0,.28a2.86,2.86,0,0,1-.07.28c0,.09,0,.18-.08.26l-.13.28c0,.08-.08.17-.13.25s-.11.18-.16.27-.11.16-.18.24a2.39,2.39,0,0,1-.21.26l-.2.23-.26.24a2.61,2.61,0,0,1-.24.22,3.67,3.67,0,0,1-.29.23l-.26.2-.34.21a2.9,2.9,0,0,1-.29.19l-.36.19-.33.17-.4.18-.33.15-.44.15-.36.13-.46.13-.37.11-.5.1-.37.09-.55.08-.36,0-.63.07-.31,0q-.47,0-1,0a15.81,15.81,0,0,1-1.69-.1l-.5-.07c-.22,0-.43-.08-.64-.12V65.36l.23,0,.93.11.38,0c.44,0,.86,0,1.29,0s.92,0,1.37,0l.43-.05c.3,0,.6-.06.9-.1l.47-.08.81-.16.46-.11c.27-.07.53-.16.79-.24l.38-.12c.37-.13.72-.26,1.06-.41l0,0a9.55,9.55,0,0,0,1-.51l.29-.17.63-.41a3.55,3.55,0,0,0,.31-.23,5.3,5.3,0,0,0,.52-.42l.16-.13C78.46,62.45,78.45,62.51,78.45,62.57Zm0-4.54a2.16,2.16,0,0,1,0,.27,2.46,2.46,0,0,1-.07.29c0,.09,0,.18-.08.26s-.09.19-.13.28a2,2,0,0,1-.13.25l-.16.27a2.15,2.15,0,0,1-.18.24,1.71,1.71,0,0,1-.21.26c-.06.08-.13.15-.2.23l-.26.24a1.7,1.7,0,0,1-.24.22,2.26,2.26,0,0,1-.29.23l-.26.2a3.87,3.87,0,0,1-.34.21l-.29.19-.36.2-.33.16-.4.18-.33.15-.44.15-.36.13-.46.13-.37.11L72,63l-.37.09-.55.08-.36.06-.63,0-.31,0q-.47,0-1,0a15.81,15.81,0,0,1-1.69-.1l-.5-.07c-.22,0-.43-.08-.64-.12V60.82a1.81,1.81,0,0,0,.23,0c.32,0,.62.08.93.11l.38,0c.44,0,.86,0,1.29,0s.92,0,1.37,0l.43,0c.3,0,.6-.06.9-.11l.47-.08.81-.16.46-.11.79-.23.38-.13a11.1,11.1,0,0,0,1.06-.41h0c.35-.16.68-.33,1-.51l.29-.19a6.73,6.73,0,0,0,.63-.4l.31-.22c.18-.14.36-.28.52-.43l.16-.13C78.46,57.9,78.45,58,78.45,58Zm0-4.54a2.16,2.16,0,0,1,0,.27c0,.1,0,.19-.07.29s0,.18-.08.26-.09.19-.13.28-.08.17-.13.26l-.16.26c-.06.08-.11.17-.18.25a2.32,2.32,0,0,1-.21.25,2.2,2.2,0,0,1-.2.23c-.08.09-.17.16-.26.25l-.24.21a2.26,2.26,0,0,1-.29.23l-.26.2-.34.22-.29.18-.36.2-.33.16-.4.18-.33.15L73.7,58l-.36.12-.46.13-.37.11-.5.11-.37.08-.55.08-.36.06-.63,0a3,3,0,0,1-.31,0c-.31,0-.63,0-1,0a15.81,15.81,0,0,1-1.69-.11l-.5-.07c-.22,0-.43-.07-.64-.12v-.84a6.32,6.32,0,0,0-.06-.75,3.58,3.58,0,0,0-.09-.45,1.06,1.06,0,0,0,0-.19h.08c.32,0,.66.09,1,.12l.48.06c.49,0,1,.06,1.48.06s.92,0,1.37,0l.43,0,.9-.11.47-.08.81-.16.46-.11.79-.23.38-.13a11.1,11.1,0,0,0,1.06-.41h0c.35-.16.68-.33,1-.51l.29-.18c.22-.13.43-.26.63-.4l.31-.23c.18-.14.36-.28.52-.43l.16-.12C78.46,53.37,78.45,53.43,78.45,53.49Zm0-4.53c0,.08,0,.18,0,.27s0,.19-.07.29,0,.17-.08.26l-.13.27c0,.09-.08.17-.13.26l-.16.26a2.27,2.27,0,0,1-.18.25,1.64,1.64,0,0,1-.21.25l-.2.24-.26.24-.24.22-.29.22-.26.21-.34.21a2.82,2.82,0,0,1-.29.18l-.36.2-.33.17-.4.17-.33.15-.44.16-.36.12-.46.13-.37.11-.5.11-.37.08-.55.09-.36.05-.63.06-.31,0c-.31,0-.63,0-1,0s-.81,0-1.21,0l-.38-.05c-.27,0-.55,0-.81-.09L66,54c-.24,0-.48-.09-.71-.15l-.45-.12a4.74,4.74,0,0,1-.5-.15,10.79,10.79,0,0,0-4.4-2.86,3.69,3.69,0,0,1-.74-1.94l.17.14.53.42.31.23c.2.14.41.26.63.4l.29.18c.33.18.66.35,1,.5l0,0c.34.15.69.29,1.06.42l.37.11c.27.09.53.17.8.24l.46.11.8.16.48.08.9.11.42,0c.45,0,.91.06,1.37.06s.92,0,1.37-.06l.43,0,.9-.11.47-.08.81-.16.46-.11c.27-.07.53-.15.79-.24l.38-.11c.37-.13.72-.27,1.06-.42l0,0c.35-.15.68-.32,1-.5l.29-.18c.22-.13.43-.26.63-.4l.31-.23c.18-.14.36-.28.52-.42l.16-.13C78.46,48.83,78.45,48.9,78.45,49ZM63.69,62.57a2.7,2.7,0,0,1,0,.28,2.86,2.86,0,0,1-.07.28c0,.09,0,.18-.09.27a2,2,0,0,1-.12.27l-.13.26c-.05.09-.11.17-.17.26a2.79,2.79,0,0,1-.17.25l-.21.25c-.07.08-.13.16-.2.23l-.26.24a2.39,2.39,0,0,1-.23.22l-.3.23-.26.2L61.1,66l-.29.18-.36.19-.33.18-.4.17-.34.15-.43.15-.36.13-.46.13-.37.11-.5.11-.38.08-.55.08-.35,0-.63.07-.31,0c-.31,0-.63,0-.95,0s-.65,0-1,0l-.31,0-.63-.07-.35,0-.55-.08-.38-.09-.49-.1L50,67.31l-.46-.13-.36-.13-.43-.15-.34-.15-.4-.18-.32-.17-.37-.19L47.06,66l-.33-.21-.27-.2-.29-.23c-.09-.07-.16-.15-.24-.22l-.26-.24c-.07-.08-.13-.16-.2-.23l-.21-.26-.17-.24c-.06-.09-.12-.18-.17-.27s-.08-.17-.13-.25-.09-.19-.12-.28a2,2,0,0,1-.08-.26,2.45,2.45,0,0,1-.08-.29,2.51,2.51,0,0,1,0-.27,1.11,1.11,0,0,1,0-.19l.16.13a5.43,5.43,0,0,0,.53.42,3.55,3.55,0,0,0,.31.23c.2.14.41.27.62.4l.3.18a10.6,10.6,0,0,0,1,.51l0,0c.35.15.7.28,1.06.41l.38.12.8.24.46.11.81.16.47.08.89.1a3.27,3.27,0,0,0,.44,0c.44,0,.9.06,1.37.06s.91,0,1.36,0l.43-.05c.3,0,.6-.06.9-.1l.47-.08.81-.16.45-.11c.27-.07.54-.16.8-.24l.38-.12c.36-.13.72-.26,1.05-.41l0,0a8.54,8.54,0,0,0,1-.51c.11-.05.2-.12.3-.17s.43-.26.63-.4l.31-.24a5.3,5.3,0,0,0,.52-.42l.16-.12A1.1,1.1,0,0,1,63.69,62.57Zm0,4.35a1.11,1.11,0,0,1,0,.19,2.51,2.51,0,0,1,0,.27c0,.1,0,.19-.07.29a2.67,2.67,0,0,1-.09.26,1.31,1.31,0,0,1-.12.27,2.1,2.1,0,0,1-.13.26,2.33,2.33,0,0,1-.17.26,1.38,1.38,0,0,1-.17.25,1.64,1.64,0,0,1-.21.25l-.2.24-.26.24-.23.22-.3.23-.26.2-.34.21-.29.19-.36.19a3.41,3.41,0,0,1-.33.17l-.4.17-.34.15-.43.16-.36.13-.46.13-.37.11-.5.1-.38.08c-.18,0-.36.06-.55.09l-.35,0c-.21,0-.42,0-.63.06l-.31,0c-.31,0-.63,0-.95,0s-.65,0-1,0l-.31,0q-.31,0-.63-.06l-.35,0c-.19,0-.37,0-.55-.09l-.38-.07L50.41,72,50,71.85l-.46-.13-.36-.13-.43-.16-.34-.15-.4-.17-.32-.17-.37-.19-.29-.19-.33-.21-.27-.2-.29-.23-.24-.22-.26-.24c-.07-.08-.13-.16-.2-.23L45.26,69l-.17-.25a2.33,2.33,0,0,1-.17-.26c0-.08-.08-.17-.13-.26a2.21,2.21,0,0,1-.12-.27,2.58,2.58,0,0,1-.08-.26c0-.1-.06-.19-.08-.29a2.51,2.51,0,0,1,0-.27,1.11,1.11,0,0,1,0-.19l.16.13c.17.15.34.28.53.42a3.55,3.55,0,0,0,.31.23c.2.14.41.27.62.4s.2.13.3.18c.32.18.66.36,1,.51l0,0c.34.15.7.29,1.06.41l.38.12c.27.08.52.16.8.23l.46.11c.26.06.53.12.8.16l.48.09c.29,0,.59.08.89.1l.43,0c.45,0,.91,0,1.38,0s.91,0,1.36,0l.43,0c.3,0,.6-.06.9-.1l.47-.08.81-.17a3.69,3.69,0,0,0,.45-.11c.27-.06.54-.15.8-.23l.38-.12a10.91,10.91,0,0,0,1.05-.41l0,0a10.42,10.42,0,0,0,1-.51,1.83,1.83,0,0,0,.3-.18l.63-.39.31-.24a5.3,5.3,0,0,0,.52-.42Zm-19.1,4.67c.17.14.34.29.53.42a3.55,3.55,0,0,0,.31.23c.2.14.41.27.62.4l.3.18c.32.18.66.35,1,.51a.05.05,0,0,1,0,0c.34.15.7.28,1.06.41l.38.12c.27.08.52.16.8.23l.46.11.8.17.48.07c.29.05.59.08.89.11l.43,0q.67.06,1.38.06c.45,0,.91,0,1.36-.06l.43,0c.3,0,.6-.07.9-.12l.47-.07.81-.16.45-.11c.27-.08.54-.15.8-.24s.26-.07.38-.12c.36-.13.72-.26,1.05-.41l0,0c.35-.16.68-.33,1-.51l.3-.18c.22-.13.43-.26.63-.4L63,72l.52-.43.16-.13a1.23,1.23,0,0,1,0,.19,2.51,2.51,0,0,1,0,.27,2.29,2.29,0,0,1-.07.28c0,.09,0,.18-.09.27a2.14,2.14,0,0,1-.12.28l-.13.25a2.33,2.33,0,0,1-.17.26,1.38,1.38,0,0,1-.17.25,2.39,2.39,0,0,1-.21.26l-.2.22a3.07,3.07,0,0,1-.26.25,2.29,2.29,0,0,1-.23.21c-.1.09-.2.16-.3.24l-.26.2-.34.21-.29.18-.36.2c-.11,0-.21.12-.33.17l-.4.17a3.49,3.49,0,0,1-.34.15l-.43.16c-.12,0-.23.09-.36.12l-.46.14-.37.1-.5.11-.38.08-.55.08a2,2,0,0,1-.35.06c-.21,0-.42,0-.63.06l-.31,0c-.31,0-.63,0-.95,0s-.65,0-1,0l-.31,0c-.21,0-.42,0-.63-.06l-.35,0-.55-.09-.38-.08-.49-.11-.38-.1-.46-.14c-.12,0-.23-.08-.36-.12L48.78,76a3.49,3.49,0,0,1-.34-.15l-.4-.17-.32-.17-.37-.2-.29-.18-.33-.21-.27-.2a3.36,3.36,0,0,1-.29-.24,2.41,2.41,0,0,1-.24-.21L45.67,74l-.2-.22-.21-.26-.17-.24c-.06-.09-.12-.18-.17-.27s-.08-.17-.13-.25-.09-.19-.12-.28a2.76,2.76,0,0,1-.08-.27,2.29,2.29,0,0,1-.08-.28,2.51,2.51,0,0,1,0-.27,1.37,1.37,0,0,1,0-.19Zm18.85,5.48h0a5.23,5.23,0,0,1-1.67,2.09l-.08,0c-.24.19-.49.36-.77.54l-.16.09,0,0a13.77,13.77,0,0,1-6.66,1.62,14.41,14.41,0,0,1-5.82-1.19l-.33-.16c-.16-.07-.32-.16-.47-.24l-.28-.17q-.39-.24-.75-.51L46.21,79l-.3-.27c-.09-.08-.17-.17-.26-.26l-.23-.26-.24-.31L45,77.69a4.23,4.23,0,0,1-.22-.42c0-.06-.06-.11-.08-.16a4.62,4.62,0,0,1-.19-.6.76.76,0,0,0,0-.16l0-.35.16.13c.16.14.33.28.52.42l.31.23c.2.14.41.27.62.4l.3.18c.32.18.66.35,1,.51h0c.34.15.69.29,1.06.42l.37.11c.27.09.53.17.8.24l.46.11.81.17.47.07c.3,0,.59.08.9.11l.43,0c.44,0,.9.06,1.37.06s.91,0,1.36-.06c.15,0,.29,0,.43,0l.9-.1.47-.08.81-.17.45-.11.8-.23.38-.12c.36-.13.72-.27,1.05-.42h0c.35-.16.68-.33,1-.51l.3-.18c.22-.13.43-.26.63-.4l.31-.23c.18-.14.36-.28.52-.42l.16-.13c0,.12,0,.24,0,.36s0,0,0,.08A3.21,3.21,0,0,1,63.46,77.07Zm5.37,4.41a14.58,14.58,0,0,1-5.17-.91,7.48,7.48,0,0,0,1.47-1.75h.06c.52.11,1.06.19,1.6.26l.36,0c.55,0,1.11.09,1.68.09s.92,0,1.37-.06c.15,0,.28,0,.43,0l.9-.1.47-.08.81-.17.46-.11.79-.23.38-.12c.37-.13.72-.27,1.06-.42h0c.35-.16.68-.33,1-.51l.29-.18c.22-.13.43-.26.63-.4a3.55,3.55,0,0,0,.31-.23c.18-.14.36-.28.52-.42l.17-.14C78.3,79,74,81.48,68.83,81.48Zm0-31.78c-5.23,0-9.64-2.59-9.64-5.67a2.59,2.59,0,0,1,.05-.56s0-.1,0-.16a2.85,2.85,0,0,1,.11-.39,1.22,1.22,0,0,1,.07-.17,2,2,0,0,1,.17-.36,1.28,1.28,0,0,1,.11-.2c.07-.11.13-.21.21-.32l.2-.25.2-.24c.11-.12.24-.24.36-.35a.63.63,0,0,0,.12-.11A8.16,8.16,0,0,1,62,40.05a11.72,11.72,0,0,1,1.42-.7l.09,0a12.69,12.69,0,0,1,1.58-.51h.06a13.76,13.76,0,0,1,1.45-.28h.07c.52-.07,1.05-.11,1.6-.13l.53,0c5.22,0,9.64,2.6,9.64,5.67S74.06,49.7,68.83,49.7Z"/></g><text x="0" y="115" fill="#000000" font-size="5px" font-weight="bold" font-family="'Helvetica Neue', Helvetica, Arial-Unicode, Arial, Sans-serif">Created by Desireé Bolívar</text><text x="0" y="120" fill="#000000" font-size="5px" font-weight="bold" font-family="'Helvetica Neue', Helvetica, Arial-Unicode, Arial, Sans-serif">from the Noun Project</text></svg>