<svg xmlns="http://www.w3.org/2000/svg" viewBox="0 0 100 125" x="0px" y="0px"><title>Noun_Project_50Icon_5px_grid</title><g data-name="Capa 2"><path d="M62.4,15.3H16.18V83.41H84.3V15.3ZM38.07,81H18.62V17.73H38.07ZM60,81H40.51V17.73H60Zm21.89,0H62.4V17.73H81.86Zm0,0"/><path d="M21,20.16V46.92h14.6V20.16ZM33.21,44.49H23.48V22.6h9.73Z"/><path d="M42.94,20.16V46.92H57.53V20.16ZM55.1,44.49H45.37V22.6H55.1Z"/><path d="M64.83,20.16V46.92h14.6V20.16ZM77,44.49H67.27V22.6H77Z"/><path d="M28.34,62.73a7.3,7.3,0,1,0,7.3,7.3A7.31,7.31,0,0,0,28.34,62.73Zm0,12.16A4.86,4.86,0,1,1,33.21,70,4.86,4.86,0,0,1,28.34,74.89Z"/><path d="M50.23,62.73a7.3,7.3,0,1,0,7.3,7.3A7.3,7.3,0,0,0,50.23,62.73Zm0,12.16A4.86,4.86,0,1,1,55.1,70,4.87,4.87,0,0,1,50.23,74.89Z"/><path d="M72.13,62.73a7.3,7.3,0,1,0,7.3,7.3A7.3,7.3,0,0,0,72.13,62.73Zm0,12.16A4.86,4.86,0,1,1,77,70,4.86,4.86,0,0,1,72.13,74.89Z"/></g><text x="0" y="115" fill="#000000" font-size="5px" font-weight="bold" font-family="'Helvetica Neue', Helvetica, Arial-Unicode, Arial, Sans-serif">Created by Desireé Bolívar</text><text x="0" y="120" fill="#000000" font-size="5px" font-weight="bold" font-family="'Helvetica Neue', Helvetica, Arial-Unicode, Arial, Sans-serif">from the Noun Project</text></svg>