<svg xmlns="http://www.w3.org/2000/svg" viewBox="0 0 100 125" x="0px" y="0px"><title>Noun_Project_50Icon_5px_grid</title><g data-name="Capa 2"><path d="M30.41,22.19A1.17,1.17,0,1,1,29.24,21a1.18,1.18,0,0,1,1.17,1.17Z"/><path d="M26.91,25.69a1.17,1.17,0,1,1-1.17-1.17,1.16,1.16,0,0,1,1.17,1.17Z"/><path d="M54.89,25.69a1.17,1.17,0,1,1-1.17-1.17,1.16,1.16,0,0,1,1.17,1.17Z"/><path d="M58.39,22.19A1.17,1.17,0,1,1,57.22,21a1.18,1.18,0,0,1,1.17,1.17Z"/><path d="M61.88,25.69a1.17,1.17,0,0,1-2.33,0,1.17,1.17,0,1,1,2.33,0Z"/><path d="M47.9,32.68a1.17,1.17,0,1,1-1.17-1.16,1.17,1.17,0,0,1,1.17,1.16Zm0,0"/><path d="M40.9,32.68a1.17,1.17,0,1,1-1.17-1.16,1.17,1.17,0,0,1,1.17,1.16Z"/><path d="M75.88,32.68a1.17,1.17,0,1,1-1.17-1.16,1.17,1.17,0,0,1,1.17,1.16Z"/><path d="M44.39,36.18A1.16,1.16,0,1,1,43.23,35a1.16,1.16,0,0,1,1.16,1.16Z"/><path d="M47.9,39.68a1.17,1.17,0,1,1-1.17-1.17,1.17,1.17,0,0,1,1.17,1.17Zm0,0"/><path d="M37.4,36.18A1.17,1.17,0,1,1,36.24,35a1.16,1.16,0,0,1,1.16,1.16Z"/><path d="M40.9,39.68a1.17,1.17,0,1,1-1.17-1.17,1.16,1.16,0,0,1,1.17,1.17Z"/><path d="M79.37,36.18A1.17,1.17,0,1,1,78.2,35a1.17,1.17,0,0,1,1.17,1.16Z"/><path d="M72.37,36.18A1.16,1.16,0,1,1,71.21,35a1.16,1.16,0,0,1,1.16,1.16Z"/><path d="M75.88,39.68a1.17,1.17,0,1,1-1.17-1.17,1.17,1.17,0,0,1,1.17,1.17Z"/><path d="M83.93,28.85a1.33,1.33,0,0,0-.05-.34L79.08,18a4.83,4.83,0,0,0-4.37-2.79h-49A4.82,4.82,0,0,0,21.38,18L16.64,28.32l-.06.17a1.34,1.34,0,0,0,0,.49,1.54,1.54,0,0,0-.11.58v7.83a9.31,9.31,0,0,0,1.16,4.51v8.57A4.37,4.37,0,0,0,16.5,52.6a4.67,4.67,0,0,0,.11,2.13A1.46,1.46,0,0,1,16.37,56a6.75,6.75,0,0,0-.61,6.26,4.27,4.27,0,0,0,.48.83,1.58,1.58,0,0,1,.26,1.28,3.7,3.7,0,0,0-.13.74A9.57,9.57,0,0,0,16.66,68a5.11,5.11,0,0,0,1.42,3,3,3,0,0,0,1.84.71v4.23H16.5l-.59,0-.72.88,1.41,8.42H82.87V41.9A9.31,9.31,0,0,0,84,37.39v-8A1.19,1.19,0,0,0,83.93,28.85ZM74.71,17.57A2.48,2.48,0,0,1,77,19l4.17,9.06H67.52l-1-5.25-1-5.25Zm-23.32,0h2.12a1.15,1.15,0,0,0-.95,1.12,1.17,1.17,0,1,0,2.33,0,1.15,1.15,0,0,0-1-1.12h6.57a1.16,1.16,0,0,0-1,1.12,1.17,1.17,0,0,0,1.17,1.17,1.16,1.16,0,0,0,.22-2.29h2.3l.65,3.52a1.16,1.16,0,0,0,.33,2.27l.08,0,.85,4.73H51.39Zm0,12.82h14v7a7,7,0,1,1-14,0ZM36.25,22.82l1-5.25H49.06v10.5H35.3Zm-1.18,7.57h14v7a7,7,0,0,1-5.23,6.76,1.14,1.14,0,0,0,.56-1,1.16,1.16,0,1,0-1.33,1.13,8.26,8.26,0,0,1-1,.08,7,7,0,0,1-7-7ZM21.6,23.13a1,1,0,0,0,.64.23,1.17,1.17,0,0,0,1.17-1.17,1.14,1.14,0,0,0-.87-1.1l1-2.08a2.44,2.44,0,0,1,1.76-1.37,1.15,1.15,0,0,0-.68,1.05,1.17,1.17,0,1,0,2.33,0A1.15,1.15,0,0,0,26,17.57h6.57a1.15,1.15,0,0,0-1,1.12,1.17,1.17,0,1,0,2.33,0A1.15,1.15,0,0,0,33,17.57h1.89l-1,5.25-.37,2a1.12,1.12,0,0,0-.78-.32,1.17,1.17,0,1,0,0,2.33,1.26,1.26,0,0,0,.43-.08l-.24,1.3H19.32Zm-2.85,7.26h14v7a7,7,0,0,1-7,7,7.36,7.36,0,0,1-.82-.06l-.28,0-.52-.1-.32-.08L23.34,44,23,43.84l-.64-.31-.31-.19-.38-.25-.26-.2A4.19,4.19,0,0,1,21,42.5l-.13-.12a7.21,7.21,0,0,1-.59-.64h0a7.88,7.88,0,0,1-.51-.73l-.12-.21-.05-.07a7,7,0,0,1-.84-3.33Zm.85,38.77a3.48,3.48,0,0,1-.66-1.7,8,8,0,0,1-.25-2.17,2.32,2.32,0,0,1,.06-.38,3.9,3.9,0,0,0-.64-3.24,2.77,2.77,0,0,1-.22-.37,4.4,4.4,0,0,1,.42-4,3.79,3.79,0,0,0,.54-3.21,2.3,2.3,0,0,1-.06-1,2,2,0,0,1,.61-1.12l.08-.06a1.18,1.18,0,0,1,.29-.19l1.06-.87a.81.81,0,0,1,.29-.19s.05,0,.08,0a1.65,1.65,0,0,1,.65-.09l.3,0a3,3,0,0,1,1.14.4l.25.21c.12.11.22.2.31.3a1.72,1.72,0,0,1,.23.32A1.88,1.88,0,0,1,24.23,53a3.54,3.54,0,0,0,.72,3,1.36,1.36,0,0,1,.28.61,2.24,2.24,0,0,1,.05.46,5.17,5.17,0,0,1-.4,1.73,6.64,6.64,0,0,1-.77,1.44,3.8,3.8,0,0,0-.6,2.85,4.92,4.92,0,0,0,.3,1,3,3,0,0,1,.24,1,3.2,3.2,0,0,1-.12,1.07,3,3,0,0,1-.21.52,3.88,3.88,0,0,1-.63,1l0,0a4.68,4.68,0,0,1-.38.39,7.34,7.34,0,0,1-1.3.9h0a3.88,3.88,0,0,1-.56.23A1.28,1.28,0,0,1,19.6,69.16Zm6.35-6A1.65,1.65,0,0,1,26,61.55a5.13,5.13,0,0,0,.32-.52A9.54,9.54,0,0,0,27,59.6a6.12,6.12,0,0,0,.48-3.51,3.72,3.72,0,0,0-.78-1.64,1.25,1.25,0,0,1-.24-1,4.08,4.08,0,0,0,.09-.93,1.77,1.77,0,0,1,0-.23,5.47,5.47,0,0,0-.13-.81s0-.06,0-.09H52.55V75.87H22.24V71.12a1.24,1.24,0,0,0,.2-.1,8.35,8.35,0,0,0,1.74-1.19h0l0,0a6.16,6.16,0,0,0,.63-.62l.08-.11a5.47,5.47,0,0,0,.41-.54,2.13,2.13,0,0,0,.16-.25,4.17,4.17,0,0,0,.26-.46c.05-.08.09-.17.13-.25a5.1,5.1,0,0,0,.28-.74,4.7,4.7,0,0,0,.19-.92,6.12,6.12,0,0,0,0-1A5.44,5.44,0,0,0,26,63.12ZM23.59,82.86h-5l-.78-4.67h6.58Zm52.29,0H59.55V51.38H75.88Zm4.66,0H78.2V49.05h-21V82.86H26l.77-4.67H54.89V49.05H24.7a5.16,5.16,0,0,0-2.22-.86,4.36,4.36,0,0,0-.88,0l-.22,0a3.19,3.19,0,0,0-.63.1l-.18,0a3.16,3.16,0,0,0-.66.27v-3.9a9.38,9.38,0,0,0,2.2,1.3h0c.25.1.51.2.78.29l.14,0,.69.17.21,0c.22,0,.44.08.67.1l.23,0a8.69,8.69,0,0,0,.89,0,7.36,7.36,0,0,0,1.16-.09l.33,0c.29-.05.57-.11.85-.18l.29-.08A7.69,7.69,0,0,0,29.42,46l.14-.07c.29-.13.57-.28.85-.43l.28-.18a6.54,6.54,0,0,0,.71-.5l.2-.14a9.23,9.23,0,0,0,.8-.73l.17-.18c.2-.22.38-.44.56-.66l.19-.27a7.11,7.11,0,0,0,.51-.79l.07-.11L34,42a7,7,0,0,0,.5.79l.2.27.56.66.17.18a9.23,9.23,0,0,0,.8.73l.2.14a5.14,5.14,0,0,0,.72.5l.27.18c.27.15.56.3.84.43l.15.07a7.69,7.69,0,0,0,1,.37l.29.08c.28.07.56.13.85.18l.33,0a7.36,7.36,0,0,0,1.16.09,7.46,7.46,0,0,0,1.16-.09l.32,0c.29-.05.57-.11.85-.18l.29-.08A7.69,7.69,0,0,0,45.74,46l.15-.07c.29-.13.57-.28.84-.43l.28-.18a6.54,6.54,0,0,0,.71-.5l.2-.14a9.23,9.23,0,0,0,.8-.73l.17-.18c.2-.22.38-.44.56-.66l.19-.27a7.18,7.18,0,0,0,.52-.79.6.6,0,0,0,.06-.11.76.76,0,0,1,.08.11,8.92,8.92,0,0,0,.51.79l.19.27.56.66.17.18a8.09,8.09,0,0,0,.81.73l.19.14a5.79,5.79,0,0,0,.72.5l.27.18c.28.15.56.3.85.43l.15.07a8.06,8.06,0,0,0,1,.37l.29.08c.28.07.56.13.85.18l.33,0a7.36,7.36,0,0,0,1.16.09,7.46,7.46,0,0,0,1.16-.09l.32,0c.29-.05.57-.11.85-.18l.29-.08A7.69,7.69,0,0,0,62.06,46l.15-.07c.29-.13.57-.28.84-.43l.28-.18a7.8,7.8,0,0,0,.72-.5l.19-.14a9.36,9.36,0,0,0,.81-.73l.16-.18c.2-.22.38-.44.56-.66L66,42.8a7.18,7.18,0,0,0,.52-.79l.07-.11.07.11a8.92,8.92,0,0,0,.51.79l.19.27q.27.33.57.66l.16.18a9.36,9.36,0,0,0,.81.73l.2.14a5,5,0,0,0,.71.5l.28.18c.27.15.55.3.84.43L71,46a8.06,8.06,0,0,0,1,.37l.29.08c.28.07.57.13.85.18l.33,0a7.46,7.46,0,0,0,1.16.09,8.69,8.69,0,0,0,.89,0l.24,0c.22,0,.44-.06.66-.1l.21,0,.69-.17.14,0,.79-.29h0a9.38,9.38,0,0,0,2.2-1.3Zm1.17-51.34a1.17,1.17,0,1,0,0,2.33v3.54a7.1,7.1,0,0,1-.11,1.14,1.16,1.16,0,0,0-1.06,1.15,1.14,1.14,0,0,0,.4.86c0,.06,0,.12-.08.17l0,.08-.13.2a6.39,6.39,0,0,1-.5.74,0,0,0,0,0,0,0,7.12,7.12,0,0,1-.58.64l-.13.12-.21.18A1.18,1.18,0,0,0,78.2,42a1.14,1.14,0,0,0-.9,1.87l-.19.07-.45.15-.33.09-.52.1-.28,0a7.36,7.36,0,0,1-.82.06,7,7,0,0,1-2.59-.51,1.13,1.13,0,0,0,.25-.7,1.16,1.16,0,0,0-2.21-.49,7.06,7.06,0,0,1-1.69-2.14,1.15,1.15,0,0,0,.41-.87,1.16,1.16,0,0,0-1.07-1.15,7.11,7.11,0,0,1-.1-1.14V33.85a1.17,1.17,0,1,0,0-2.33V30.39h14Z"/><path d="M72.37,65.37a1.16,1.16,0,0,0-1.16,1.17V70a1.17,1.17,0,0,0,2.33,0v-3.5a1.17,1.17,0,0,0-1.17-1.17Z"/><path d="M36.24,60.71a1.2,1.2,0,0,0,.82-.34l4.67-4.67a1.18,1.18,0,0,0,0-1.65,1.19,1.19,0,0,0-1.66,0l-4.66,4.67a1.18,1.18,0,0,0,0,1.65,1.19,1.19,0,0,0,.83.34Z"/><path d="M36.24,66.54a1.17,1.17,0,0,0,.82-.35l2.33-2.32a1.17,1.17,0,0,0-1.65-1.66l-2.33,2.34a1.17,1.17,0,0,0,.83,2Zm0,0"/><path d="M40.07,59.88a1.22,1.22,0,0,0-.34.83,1.16,1.16,0,0,0,1.17,1.16,1.3,1.3,0,0,0,.83-.33,1.24,1.24,0,0,0,.34-.83,1.22,1.22,0,0,0-.34-.83,1.23,1.23,0,0,0-1.66,0Z"/><path d="M42.41,59.2a1.14,1.14,0,0,0,.82.34,1.13,1.13,0,0,0,.82-.34l3.5-3.5a1.16,1.16,0,0,0,0-1.65,1.18,1.18,0,0,0-1.65,0l-3.49,3.5a1.16,1.16,0,0,0,0,1.65Z"/><path d="M36.24,72.37a1.17,1.17,0,0,0,.82-.35L47.55,61.53a1.16,1.16,0,0,0,0-1.65,1.18,1.18,0,0,0-1.65,0L35.41,70.38a1.17,1.17,0,0,0,.83,2Z"/><path d="M48.23,59.2a1.18,1.18,0,0,0,1.66,0,1.16,1.16,0,1,0-1.66,0Z"/></g><text x="0" y="115" fill="#000000" font-size="5px" font-weight="bold" font-family="'Helvetica Neue', Helvetica, Arial-Unicode, Arial, Sans-serif">Created by Desireé Bolívar</text><text x="0" y="120" fill="#000000" font-size="5px" font-weight="bold" font-family="'Helvetica Neue', Helvetica, Arial-Unicode, Arial, Sans-serif">from the Noun Project</text></svg>