<svg xmlns="http://www.w3.org/2000/svg" viewBox="0 0 100 125" x="0px" y="0px"><title>Noun_Project_50Icon_5px_grid</title><g data-name="Capa 2"><path d="M78.21,24.51H65.62V21.87a6.69,6.69,0,0,0-6.69-6.68H25.67A6.69,6.69,0,0,0,19,21.87V78.46a6.69,6.69,0,0,0,6.69,6.68H58.93a6.69,6.69,0,0,0,6.69-6.68V64.16H78.21a3.74,3.74,0,0,0,3.73-3.74V28.25A3.74,3.74,0,0,0,78.21,24.51ZM63.28,78.46a4.36,4.36,0,0,1-4.35,4.35H25.67a4.36,4.36,0,0,1-4.35-4.35V21.87a4.35,4.35,0,0,1,4.35-4.35H58.93a4.35,4.35,0,0,1,4.35,4.35ZM68,61.82H65.62v-35H68Zm4.66,0H70.28v-35h2.33Zm7-1.4a1.4,1.4,0,0,1-1.4,1.4H74.94v-35h3.27a1.4,1.4,0,0,1,1.4,1.4Z"/><path d="M78.44,31.51a1.17,1.17,0,1,1-1.16-1.17,1.17,1.17,0,0,1,1.16,1.17Z"/><path d="M78.44,37.34a1.17,1.17,0,1,1-1.16-1.17,1.17,1.17,0,0,1,1.16,1.17Z"/><path d="M24.81,25.68V40.84h35V25.68ZM57.45,38.51H27.15V28h30.3Z"/><path d="M31.81,23.35a1.17,1.17,0,1,0,0-2.33h-7a1.17,1.17,0,0,0,0,2.33Z"/><path d="M26,43.17v8.16H35.3V43.17ZM33,49H28.31V45.5H33Z"/><path d="M37.64,43.17v8.16H47V43.17Zm7,5.83H40V45.5h4.67Z"/><path d="M49.3,43.17v8.16h9.32V43.17Zm7,5.83H51.62V45.5h4.67Z"/><path d="M26,52.5v8.16H35.3V52.5Zm7,5.83H28.31v-3.5H33Z"/><path d="M37.64,52.5v8.16H47V52.5Zm7,5.83H40v-3.5h4.67Z"/><path d="M49.3,52.5v8.16h9.32V52.5Zm7,5.83H51.62v-3.5h4.67Z"/><path d="M26,61.82V70H35.3V61.82Zm7,5.83H28.31V64.16H33Z"/><path d="M37.64,61.82V70H47V61.82Zm7,5.83H40V64.16h4.67Z"/><path d="M26,72.31v8.17H35.3V72.31Zm7,5.83H28.31V74.65H33Z"/><path d="M37.64,72.31v8.17H47V72.31Zm7,5.83H40V74.65h4.67Z"/><path d="M49.3,61.82V80.48h9.32V61.82Zm7,16.32H51.62v-14h4.67Z"/><path d="M39.25,29.27a1.15,1.15,0,0,0-.89,0,1.09,1.09,0,0,0-.38.25l-1.17,1.16a1.18,1.18,0,0,0,.83,2v3.49a1.17,1.17,0,1,0,2.33,0V30.34a1.12,1.12,0,0,0-.09-.44,1.18,1.18,0,0,0-.63-.63Z"/><path d="M49.74,29.27a1.15,1.15,0,0,0-.89,0,1.19,1.19,0,0,0-.38.25l-1.16,1.16a1.16,1.16,0,0,0,0,1.65,1.14,1.14,0,0,0,.82.35v3.49a1.17,1.17,0,1,0,2.33,0V30.34a1.12,1.12,0,0,0-.09-.44,1.15,1.15,0,0,0-.63-.63Z"/><path d="M54.4,29.27a1.15,1.15,0,0,0-.89,0,1.19,1.19,0,0,0-.38.25L52,30.68a1.18,1.18,0,0,0,.82,2v3.49a1.17,1.17,0,0,0,2.34,0V30.34a1.13,1.13,0,0,0-.1-.44,1.12,1.12,0,0,0-.63-.63Z"/><path d="M43.81,34.18l-1.17,1.17a1.18,1.18,0,0,0,0,1.65,1.21,1.21,0,0,0,.83.34,1.18,1.18,0,0,0,.82-.34l1.16-1.17a1.16,1.16,0,1,0-1.64-1.65Z"/></g><text x="0" y="115" fill="#000000" font-size="5px" font-weight="bold" font-family="'Helvetica Neue', Helvetica, Arial-Unicode, Arial, Sans-serif">Created by Desireé Bolívar</text><text x="0" y="120" fill="#000000" font-size="5px" font-weight="bold" font-family="'Helvetica Neue', Helvetica, Arial-Unicode, Arial, Sans-serif">from the Noun Project</text></svg>